<?xml version="1.0" encoding="iso-8859-1"?>
<!-- Generator: Adobe Illustrator 22.0.1, SVG Export Plug-In . SVG Version: 6.00 Build 0)  -->
<svg version="1.1" xmlns="http://www.w3.org/2000/svg" xmlns:xlink="http://www.w3.org/1999/xlink" x="0px" y="0px"
	 viewBox="0 0 64 64" style="enable-background:new 0 0 64 64;" xml:space="preserve">
<g id="_x31_0">
	<path style="fill:#AAD15D;" d="M24.07,57.7c0,0,7.798,13.234,24.172,1.342c-8.19,0.519-11.708-2.664-10.758-3.936
		c0.95-1.272,15.624-0.991,16.392-2.471c0.768-1.48,8.617-10.695,3.751-10.198s-22.418,7.369-22.601,0.757s21.731-0.658,24.51-8.682
		c2.78-8.024-0.287-7.994-3.228-7.485s-9.064,1.59-5.735-2.35c3.33-3.94,6.705-6.227,5.659-8.773s-3.672-6.73-3.672-6.73
		s-7.402,11.916-9.361,8.327s6.692-10.707,5.744-12.381C47.995,3.445,43.512,0,43.512,0L24.07,57.7z"/>
	<path style="fill:#90B74B;" d="M24.073,57.865c0,0-14.208,5.837-20.075-13.531c6.213,5.361,10.94,4.949,10.951,3.362
		C14.96,46.108,3.096,37.469,3.378,35.825c0.283-1.644-0.407-13.728,3.17-10.393s13.415,19.414,17.555,14.255
		S7.183,26.037,9.815,17.963s5.057-6.198,7.094-4.016s6.264,6.742,5.99,1.591s-1.582-9.013,0.789-10.41s6.991-3.145,6.991-3.145
		s-1.298,13.968,2.43,12.291s1.134-12.575,2.901-13.337c1.767-0.762,7.42-0.8,7.42-0.8L24.073,57.865z"/>
</g>
<g id="Layer_1">
</g>
</svg>
