<svg width="106" height="104" viewBox="0 0 106 104" fill="none" xmlns="http://www.w3.org/2000/svg">
<path d="M69.7625 43.0136C66.4734 49.6246 65.1333 56.8421 73.0517 62.4221C80.97 68.002 85.1729 69.3363 89.0102 65.5759C92.8476 61.8155 96.1367 54.2341 96.1367 47.8657C96.1367 41.4973 89.0102 34.1584 79.2645 34.1584C79.3255 34.2191 73.1126 36.4632 69.7625 43.0136Z" fill="#FFD89F"/>
<path fill-rule="evenodd" clip-rule="evenodd" d="M74.5137 1.22465C79.0211 1.10335 83.5894 1.10335 88.0967 0.921393C90.8377 0.80009 93.5787 0.557488 96.3196 0.375533L101.253 0.0116206C101.741 -0.0490309 102.167 0.132931 102.533 0.436189C103.69 1.40661 104.482 2.68029 105.456 3.83267C105.822 4.31788 105.822 4.74244 105.639 5.22765C105.456 5.59156 105.334 5.95547 105.152 6.31938C103.324 9.47326 94.4314 27.3048 93.0914 30.1554C92.9087 30.4587 92.7868 30.8226 92.6041 31.1258C92.0559 32.2176 91.9341 33.2487 92.665 34.401C94.7969 38.2827 94.9187 47.5018 91.0204 53.7489C90.4722 54.598 90.0459 55.5078 89.4977 56.4175C89.0104 57.206 89.0104 57.8732 89.6195 58.601C90.7159 60.0566 93.5178 63.817 93.5178 64.3629C93.5178 65.0907 93.2132 65.6972 92.4214 65.9398C91.325 66.3037 75.3055 70.9132 74.3919 71.1559C74.0264 71.2772 73.7828 71.4591 73.661 71.8837C73.1128 73.3393 72.4427 74.7949 72.5037 76.3719C72.5037 77.039 72.3818 77.1603 71.6509 77.1603C70.4327 77.221 69.2754 77.3423 68.0572 77.3423C67.4481 77.3423 67.0826 77.5243 66.839 78.0701C66.4735 78.8586 64.6462 82.8616 63.9762 84.0746C63.5498 84.9237 63.0625 85.1057 62.2098 84.6811C61.1134 84.1353 60.0779 83.4681 58.9816 82.8616C58.9206 82.8009 58.8597 82.8009 58.7988 82.7403C57.7024 81.8305 57.6415 81.224 58.3725 80.011C58.9206 79.1618 59.4079 78.2521 59.8952 77.3423C60.1998 76.7358 60.1388 76.6145 59.4688 76.6751C59.1034 76.6751 50.8196 77.5242 50.0886 77.5849C49.2968 77.6455 49.2359 77.6456 49.0531 78.3734C48.6877 80.011 46.7385 93.8395 46.6167 94.628C46.2513 96.9934 46.9822 98.9949 48.444 100.814C48.6877 101.118 48.9313 101.36 49.1141 101.664C49.4186 102.149 49.3577 102.513 48.9922 102.937C48.6268 103.301 48.3222 103.422 47.9568 103.059C47.4695 102.695 47.0431 102.209 46.6776 101.724C46.3122 101.239 46.0685 100.754 45.8249 100.208C45.4594 99.4801 45.1549 98.8129 44.5458 98.2064C43.8758 97.4786 43.8149 96.5688 44.1194 95.6591C44.424 94.8099 45.764 85.1057 46.0076 83.4074C46.2513 81.7092 46.4949 79.9503 46.7386 78.2521V77.8275C46.7995 77.4636 34.6174 77.221 34.0692 77.221C33.4601 77.1604 33.3992 77.1604 33.2773 77.8275C32.9728 78.9799 29.9882 96.4475 30.2318 96.8721C30.5364 97.4786 32.5464 100.936 33.2773 102.027C33.5819 102.452 33.6428 102.877 33.4601 103.362C33.2164 103.968 32.6073 104.211 32.0591 103.786C31.7546 103.544 31.5719 103.241 31.3891 102.937C30.5973 101.724 28.3436 98.3884 27.9781 98.0245C27.369 97.4786 27.2472 96.8114 27.4909 96.023C28.4045 92.8084 30.2318 83.2255 30.3537 81.8305C30.5364 80.4355 30.78 79.0405 30.9628 77.6456C31.0846 77.039 31.0237 76.9784 30.4146 76.9177C29.1354 76.7358 7.39042 75.7047 5.92857 75.5834C5.25855 75.5228 4.71036 75.2195 4.22307 74.7949C2.88304 73.6426 0.812093 69.8822 0.629362 69.5183C0.142079 68.7298 0.0811681 67.8807 0.629362 67.1528C2.21303 65.0907 5.92857 57.2666 6.7204 55.6897C6.84223 55.5078 6.84223 55.2045 6.90314 55.0225C6.72041 55.0225 6.47676 54.9619 6.29403 55.0225C5.74584 55.1438 5.38038 55.0225 5.07583 54.5373C4.77127 54.1128 4.83218 53.6276 5.13673 53.203C5.25855 52.9604 5.56311 52.8391 5.80675 52.7178C6.35494 52.4752 6.96404 52.3539 7.57315 52.1719C8.18225 51.99 8.60863 51.6867 8.85227 51.0802C9.21773 50.1098 9.6441 49.2 10.0705 48.2902C10.375 47.6231 10.3141 46.9559 10.0096 46.2887C8.85227 43.8627 4.52763 35.8567 3.55306 34.2797C3.30942 33.9158 3.00486 33.5519 2.82213 33.188C2.27394 32.2782 2.63941 31.4898 3.67488 31.3078C4.3449 31.1865 18.2934 29.6096 19.9989 29.5489C20.7298 29.4883 21.0953 29.2457 21.3998 28.5785C22.0698 27.0015 23.3489 23.5444 23.4099 23.3625C23.4708 23.0592 29.3791 10.8076 32.7292 5.22765L33.2773 4.13593C33.521 3.46876 34.0692 3.10485 34.8001 3.0442C35.7138 2.92289 36.6883 2.9229 37.6629 2.86225C39.612 2.74095 53.0123 1.89182 56.0578 1.70986C58.0679 1.58856 60.0779 1.40661 62.088 1.28531C62.8189 1.28531 74.5137 1.164 74.5137 1.22465ZM53.0732 75.1588C55.7533 75.1588 58.3724 74.7343 60.9916 74.2491C61.6007 74.1278 62.0271 73.8245 62.2707 73.218C62.4534 72.7328 62.6971 72.1869 62.9407 71.7017C63.1235 71.3378 63.0625 71.0345 62.8189 70.7313C62.3925 70.1248 61.9662 69.5183 61.6007 68.9117C61.418 68.6085 61.2352 68.2446 61.418 67.8807C61.9053 67.0315 63.3062 66.8496 63.9153 67.6381C64.0371 67.7594 64.1589 67.9413 64.2808 68.0626C64.4635 68.2446 64.6462 68.2446 64.7071 68.002C65.0117 67.1528 65.3162 66.3037 65.5599 65.394C65.6208 65.212 65.4381 64.9087 65.3162 64.7268C65.1335 64.5448 64.8899 64.4235 64.7071 64.3022C60.9916 61.8155 59.6516 59.814 60.1389 49.0787C60.3216 47.2592 61.0525 42.8922 62.3925 38.9499C63.6717 35.0682 67.1435 31.4898 71.2855 29.6096C75.4883 27.7294 83.2848 26.8196 88.7058 30.3374L89.8022 31.0652C90.3504 31.3685 90.4113 31.4291 90.7159 30.8226C91.325 29.7309 91.8732 28.6391 92.3605 27.4868C95.6496 20.5725 98.7561 13.5976 102.593 6.98654C102.715 6.74394 102.776 6.44069 102.898 6.19808C102.593 6.19808 102.289 6.13743 101.984 6.19808C101.375 6.19808 87.4876 7.22915 86.2694 7.2898C83.6503 7.47176 81.0311 7.89632 78.412 7.89632C76.5847 7.89632 74.7574 8.19958 72.93 8.26023C68.6663 8.38153 55.2051 8.50283 52.7687 8.50283C48.3831 8.56348 39.4293 8.62414 39.3075 8.62414C38.5765 8.50284 38.0893 8.86675 37.7238 9.53391C37.2365 10.4437 24.2017 37.8582 24.0799 38.0401C23.4708 39.3745 12.9333 61.9975 12.0805 63.5138C11.045 65.3333 7.93861 71.3985 7.45133 72.6721C7.14678 73.4606 7.20769 73.5213 8.06043 73.5213C8.60863 73.5213 10.9841 73.9458 11.045 73.9458C12.7505 74.3097 29.5618 75.0375 33.2164 75.2195C37.1147 75.3408 50.3323 75.1588 53.0732 75.1588ZM23.349 29.367H23.5317C24.019 29.367 24.5672 29.7309 24.689 30.2161C24.8108 30.6406 24.5672 31.1865 24.1408 31.3685C23.8971 31.4898 23.5926 31.5504 23.288 31.6111L22.0089 31.793C21.3389 31.793 20.9734 32.0963 20.6689 32.6421C18.5979 36.2812 16.4661 39.9203 14.3951 43.4988C13.786 44.5298 13.2378 45.5609 12.6287 46.6526C12.3851 47.0772 12.3851 47.5018 12.6287 47.9263C12.7505 48.2296 12.9942 48.4722 13.1769 48.7148C13.6033 49.382 14.0906 50.0491 14.456 50.7163C14.8824 51.5048 14.6997 52.1113 13.9687 52.5965C13.6033 52.8391 13.1769 53.021 12.8114 53.1423C11.776 53.5063 10.7405 53.8095 9.64411 54.1128C9.09591 54.2341 8.79136 54.5373 8.54772 55.0832C6.65949 59.0862 4.77127 63.0892 2.82213 67.0922C2.45667 67.8807 2.45668 68.6691 2.94396 69.3363C3.55306 70.1854 4.22308 70.9132 4.89309 71.7017C5.56311 72.4295 5.62401 72.4295 6.05039 71.5804C8.24316 67.2135 10.5578 62.8466 12.6896 58.419C15.3697 52.8997 17.867 47.2592 20.6689 41.8005C23.4099 36.3419 25.8463 30.7013 28.2218 25.0607C28.8309 23.6051 29.5009 22.1494 30.1709 20.6331C30.5973 19.7234 30.9628 18.8136 31.3891 17.9645C31.9373 16.7514 32.4855 15.5991 33.0946 14.4467C33.7646 13.1123 34.4956 11.8387 35.2265 10.5043C35.4092 10.1404 35.6529 9.83717 35.7747 9.47326C36.0792 8.74544 36.0183 8.38153 35.4701 7.77502C34.9828 7.2898 34.4956 6.74394 34.0692 6.25873C33.7037 5.83417 33.6428 5.83417 33.3383 6.38003L31.8764 8.9274C28.5263 15.2352 25.6026 21.7249 22.9226 28.3359C22.8008 28.5785 22.7398 28.8211 22.6789 29.0637C22.618 29.3063 22.7398 29.367 22.9835 29.367C22.9835 29.4276 23.1053 29.367 23.349 29.367ZM59.4688 6.19808C60.2607 6.07678 60.9916 6.01613 61.7834 6.01613C66.6563 5.89482 71.59 5.65222 76.4628 5.59157C79.8129 5.59157 83.1021 5.16701 86.3912 4.98505C89.8631 4.8031 93.335 4.62114 96.8069 4.37854L102.472 4.01462C103.263 3.95397 103.324 3.71136 102.837 3.0442C102.106 2.13442 101.192 1.52791 100.035 1.58856C97.3551 1.64922 85.0512 2.31638 81.5184 2.37704C77.742 2.49834 65.499 2.43769 63.2453 2.55899C59.6516 2.74095 44.1194 3.59006 41.1348 3.83267C40.2211 3.89332 37.1147 4.25723 36.5056 4.43918C35.9574 4.56049 35.8965 4.86375 36.262 5.28831C36.932 6.07678 37.6629 6.62264 38.7593 6.56199C40.8302 6.50133 42.9012 6.44068 44.9722 6.44068C49.845 6.38003 54.6569 6.31939 59.4688 6.19808ZM91.2641 37.373C90.7768 34.5223 88.9495 31.0652 81.762 29.8522C77.6201 29.1244 74.2092 30.6406 73.0519 31.1258C72.1991 31.4898 71.2855 31.8537 70.4327 32.2782C69.3972 32.8241 68.4227 33.4306 67.6917 34.401C67.0826 35.3108 66.4126 36.1599 65.9253 37.1304C63.0016 42.589 61.4789 48.3509 61.9662 54.5373C62.088 56.2356 62.4535 57.9338 63.0016 59.5714C63.4889 61.027 64.4026 62.1188 65.8035 62.7859C66.6563 63.2105 70.7373 63.9383 71.8946 63.999C79.5084 63.817 83.833 60.1173 84.9294 59.5108C85.5994 59.1468 86.1476 58.7223 86.5131 58.0551C86.8785 57.4486 87.244 56.8421 87.6704 56.3569C88.3404 55.5078 89.4368 53.5669 90.4722 50.9589C91.5077 48.3509 93.1523 44.1053 91.2641 37.373ZM19.1461 32.3389C18.9634 32.2782 18.8416 32.2176 18.7198 32.2782C18.1107 32.3389 17.5625 32.3995 16.9534 32.4602C13.3596 32.7634 9.82683 33.0667 6.23312 33.37C5.01491 33.4913 4.954 33.4913 5.5631 34.6436C6.78131 36.8877 7.99952 39.1319 9.15682 41.376C9.70502 42.3464 10.1314 43.4381 10.6187 44.4085C10.9232 44.9544 11.106 44.9544 11.4714 44.4692L11.8369 43.9233C12.5069 42.8922 13.116 41.8005 13.786 40.7694C14.8824 39.0712 18.2325 33.7339 18.7807 32.8241C18.9634 32.7028 19.0243 32.5815 19.1461 32.3389ZM75.001 68.4265C75.4274 68.3659 75.7928 68.3052 76.1583 68.1839C78.412 67.6987 80.7266 67.2741 82.9803 66.6676C85.1121 66.0611 87.1831 65.212 89.254 64.4842C89.4368 64.4235 89.6804 64.3629 89.8631 64.2416C90.3504 63.999 90.4722 63.6957 90.2286 63.1498C90.0459 62.6646 89.7413 62.2401 89.4368 61.8155C88.9495 61.1483 88.4013 60.5418 87.8531 59.8747C87.6095 59.5714 87.4267 59.6321 87.1222 59.8747C84.1375 62.3614 80.7266 64.0596 77.0719 65.212C75.671 65.6366 74.8183 66.6676 74.6964 68.1233C74.7573 68.1839 74.9401 68.3052 75.001 68.4265ZM62.0271 82.4977C62.2098 82.3764 62.3316 82.3157 62.3925 82.2551C62.5144 82.0731 62.6362 81.8305 62.758 81.5879C63.9762 79.1012 65.2553 76.5538 66.4735 74.0671C66.5344 73.8852 66.6563 73.7639 66.7172 73.5819C66.839 73.2787 66.7172 73.0967 66.3517 73.0967C65.7426 73.0967 65.1335 73.2787 64.5244 72.9754C64.4635 72.9147 64.2198 73.036 64.098 73.1573C63.9762 73.3393 63.9153 73.5212 63.7935 73.7032L60.687 80.6175C60.6261 80.7994 60.5043 80.9207 60.5043 81.1027C60.5043 81.224 60.5043 81.4666 60.5652 81.5273C60.9916 81.8912 61.4789 82.1338 62.0271 82.4977ZM67.8136 65.394C67.6917 65.4546 67.3872 65.5759 67.2654 65.7579C66.7781 66.9102 66.2908 68.0626 65.8644 69.215C65.7426 69.5183 65.8644 69.7002 66.1081 69.8822C66.9608 70.3674 67.6308 70.2461 68.179 69.3969C68.6054 68.7298 68.9709 68.002 69.2754 67.2741C70.0063 65.8185 70.0063 65.8185 68.2399 65.4546C68.179 65.4546 68.0572 65.4546 67.8136 65.394ZM69.6409 74.9769C70.0673 74.9769 70.4936 75.0375 70.6763 74.613C71.0418 73.8245 71.4073 73.036 71.7118 72.2476C71.7118 72.1869 71.59 72.005 71.5291 72.005C70.6154 72.1869 69.7627 72.3689 68.91 72.5508C68.849 72.5508 68.7272 72.6721 68.6663 72.7934C68.3008 73.3393 68.0572 73.9458 68.1181 74.613C68.6054 74.7343 69.0927 74.9162 69.5191 75.0375C69.58 74.9769 69.58 74.9769 69.6409 74.9769ZM70.0672 69.3969C70.8591 69.2756 71.5291 69.215 72.1991 69.0331C72.4427 68.9724 72.6864 68.6691 72.8082 68.4872C73.0518 67.8807 73.2955 67.2135 73.4782 66.5463C73.661 66.0005 73.4173 65.7579 72.8691 65.8792C72.6255 65.9398 72.3818 66.0005 72.1991 66.1824C71.3464 67.0315 70.5545 68.002 70.0672 69.1543C70.0063 69.215 70.0672 69.3363 70.0672 69.3969ZM10.0705 52.1113C10.8014 51.8687 11.4714 51.6867 12.1414 51.4441C12.2632 51.3834 12.446 51.0802 12.3851 50.9589C12.2023 50.4737 11.9587 49.9885 11.7151 49.5033C11.5323 49.2607 11.2887 49.2607 11.106 49.5639C10.7405 50.2917 10.375 50.9589 10.0096 51.6867C9.88774 51.7474 10.0096 51.9293 10.0705 52.1113Z" fill="#3F4244"/>
<path fill-rule="evenodd" clip-rule="evenodd" d="M37.1147 54.9619C37.1757 54.8406 37.2366 54.5374 37.4193 54.2341C38.0284 53.3243 38.6375 52.4146 39.3075 51.5654C39.4293 51.3835 39.6121 51.2622 39.7948 51.0802C40.0994 50.8376 40.4648 50.777 40.7085 51.0196C40.8912 51.2015 41.013 51.5654 41.013 51.8687C41.013 52.1113 40.8303 52.4146 40.6475 52.6572C40.343 53.203 39.9775 53.7489 39.6121 54.3554C39.3075 54.8406 39.3684 55.3865 39.8557 55.7504C41.5003 57.1454 42.8403 58.8436 44.9113 59.6927C45.2158 59.814 45.5204 60.0567 45.764 60.2993C46.1295 60.6632 46.1295 61.3303 45.8249 61.6942C45.5204 62.1188 45.094 62.2401 44.5458 61.8762C43.6931 61.2697 42.8403 60.6632 41.9876 59.996C40.5866 58.8436 39.2466 57.6306 37.8457 56.4176C37.4802 56.1143 37.1147 55.7504 37.1147 54.9619ZM52.4032 44.166C52.4032 44.7118 51.916 45.197 51.3678 45.197C50.8805 45.197 50.3323 44.6512 50.3323 44.166C50.3323 43.6201 50.9414 42.8316 51.4287 42.8923C51.7942 42.8923 52.3423 43.6201 52.4032 44.166ZM67.0827 61.5123C64.497 60.3084 63.7959 56.4315 63.5913 53.5809C63.4969 52.2678 63.5084 51.1718 63.489 50.6557C63.428 48.9574 63.6717 47.3198 63.9762 45.6822C64.6462 42.2251 66.2299 39.1925 68.1791 36.2813C69.0927 34.9469 73.2955 30.762 78.8384 31.0046C83.1021 30.7013 84.7467 31.8537 86.574 33.1274C90.9596 35.7354 90.2896 42.3464 89.8023 46.774C89.315 51.2015 85.904 55.8717 82.2494 59.3895C77.4983 62.604 71.2855 63.5138 67.0827 61.5123ZM74.6965 60.6632C83.5894 57.7519 86.0258 52.172 86.7567 50.4737C89.5586 43.4988 88.1577 39.981 87.7922 38.1615C85.7213 32.9454 77.6811 32.0963 75.3665 33.188C70.9809 34.8256 66.4736 40.1023 65.499 47.1985C64.5244 54.2948 65.0117 60.9664 74.6965 60.6632Z" fill="#3F4244"/>
<path fill-rule="evenodd" clip-rule="evenodd" d="M76.28 48.2296C76.0363 48.2296 75.8536 48.2296 75.61 48.1689C75.1227 48.1083 74.879 47.805 74.7572 47.3198C74.4527 45.8035 76.28 43.7414 77.8027 43.8627C78.4727 43.9233 78.8991 44.3479 78.7773 45.015C78.6555 45.9855 78.29 46.8952 77.6809 47.6837C77.3764 48.2296 76.8282 48.2296 76.28 48.2296Z" fill="#3F4244"/>
</svg>
