<svg width="288" height="183" viewBox="0 0 288 183" fill="none" xmlns="http://www.w3.org/2000/svg">
<g clip-path="url(#clip0_120_943)">
<path d="M98.3429 20.4685L109.652 18.2471C109.652 18.2471 108.859 8.56824 140.037 7.722C171.215 6.87576 174.227 7.51043 175.601 11.7416C176.975 15.9729 171.373 19.6223 171.373 19.6223L187.015 17.2422C187.015 17.2422 199.222 11.9003 187.861 7.1931C176.499 2.48587 150.077 -1.37511 136.866 1.74541C123.655 4.86593 110.391 7.1402 104.737 10.5252C99.0827 13.963 98.29 18.9347 98.29 18.9347" fill="#FFD89F"/>
<path d="M276.797 46.3846L246.412 61.1939L256.03 83.5664L287.155 68.2283L276.797 46.3846ZM252.806 63.4153L273.257 51.8323L279.387 66.2185L256.188 75.3156L252.806 63.4153Z" fill="#A4A4FF"/>
<path d="M39.6328 24.6468L60.3477 12.059L68.5913 26.3922L49.2504 37.9751L39.6328 24.6468Z" fill="#A4A4FF"/>
<path fill-rule="evenodd" clip-rule="evenodd" d="M48.5107 39.5089C48.6164 39.456 48.6692 39.456 48.7221 39.4032C49.8318 38.8214 50.9944 38.2396 52.1041 37.6578C52.2098 37.6049 52.2626 37.3404 52.3155 37.1289C52.1041 37.076 51.8927 36.9173 51.7342 36.9702C50.5188 37.4991 49.2505 38.028 48.2993 38.9271C48.2465 38.98 48.1936 39.1916 48.2465 39.2445C48.2465 39.3503 48.405 39.4032 48.5107 39.5089ZM37.6248 57.0156C37.6248 57.0156 37.2021 56.4338 37.0435 57.0685C36.7265 58.3378 36.4094 59.6072 36.198 60.9295C35.7753 63.2037 35.3525 65.5309 34.9298 67.8581C34.8241 68.5985 34.7712 69.339 34.7184 70.0266C34.7184 70.1852 34.8241 70.3968 34.9298 70.5555C34.9826 70.3968 35.0883 70.2381 35.1412 70.0795C35.5111 68.4399 35.9867 66.8003 36.3037 65.1078C36.7265 62.6219 37.2549 59.5014 37.6248 57.0156ZM29.9624 109.853C29.9096 109.588 29.9096 109.483 29.8568 109.324C29.3812 108.107 29.0113 106.838 28.0601 105.833C27.743 105.516 27.4788 105.41 27.1617 105.569C26.4219 105.939 25.6821 106.362 24.9951 106.785C24.8894 106.838 24.7837 107.155 24.8894 107.261C25.6292 108.531 26.369 109.8 27.1617 111.069C27.2145 111.175 27.4788 111.228 27.5845 111.228C28.2186 110.964 28.8527 110.646 29.4868 110.276C29.6982 110.223 29.8568 110.012 29.9624 109.853ZM68.3801 12.3763C68.2744 11.7416 68.1687 11.1069 68.0102 10.5251C67.7988 9.73177 67.7459 9.73177 67.059 10.0491C66.5834 10.2607 66.1606 10.4722 65.685 10.6838C65.3151 10.8425 65.3151 11.054 65.4208 11.3714C65.6322 12.0589 65.8435 12.7465 66.0549 13.3812C66.2663 14.0688 66.5305 14.7035 66.7947 15.391C67.3232 16.7133 67.7988 17.9826 68.3272 19.3049C68.3801 19.4636 68.5914 19.5693 68.6971 19.728C68.6971 19.5693 68.75 19.3578 68.6971 19.1991C68.5386 16.9248 68.3272 12.3763 68.3801 12.3763ZM63.6241 11.2656C62.9371 11.4243 62.4615 11.5829 61.9331 11.6358C61.5632 11.6887 61.5103 11.8474 61.6689 12.1647C61.7746 12.3763 61.8274 12.535 61.9331 12.7465C62.7258 14.0688 63.5713 15.3381 64.3111 16.6604C65.1566 18.0355 65.9492 19.4636 66.7947 20.8916C67.2175 21.5792 67.6402 22.2667 68.063 22.9543C68.1687 23.0601 68.3272 23.113 68.4857 23.2188C68.4857 23.0601 68.5914 22.8485 68.5386 22.6899C68.4857 22.5312 68.3801 22.3725 68.3272 22.2139C67.7459 21.0503 67.059 19.8867 66.5834 18.6702C65.685 16.4488 64.9452 14.1746 64.0997 11.9532C64.0468 11.6358 63.7826 11.4243 63.6241 11.2656ZM68.8556 27.0269C68.75 26.9211 68.6971 26.8682 68.5914 26.8153C68.1687 26.6037 67.7459 26.3922 67.3232 26.2335C67.1646 26.1806 66.9004 26.2335 66.7419 26.3393C64.8395 27.5558 62.8843 28.8251 60.9819 30.0945C59.7136 30.9407 58.4982 31.787 57.2828 32.6861C56.0145 33.5852 54.7463 34.5373 53.478 35.4893C53.0024 35.8595 53.4252 36.124 53.5309 36.4413C53.5837 36.4942 54.0065 36.4942 54.165 36.3884C56.2788 35.0662 58.3925 33.6381 60.5591 32.3159C62.1445 31.3639 63.7298 30.5176 65.3151 29.5127C66.4248 28.8251 67.4817 28.0318 68.5386 27.2913C68.6443 27.1855 68.75 27.1326 68.8556 27.0269ZM72.3434 7.88061H72.2905C72.2905 7.51038 72.3434 7.08726 72.3434 6.71703C72.3434 6.66414 72.3434 6.55836 72.2905 6.50547C72.1848 6.55836 72.0791 6.55836 72.0263 6.61125C71.2865 7.24593 70.4938 7.82773 69.8068 8.46241C69.5955 8.67397 69.4369 9.09709 69.4369 9.41443C69.4369 10.102 69.5426 10.8425 69.5426 11.53C69.7012 14.1217 69.8597 16.7133 69.9654 19.3049C70.0182 20.2569 70.1768 21.2089 70.0711 22.161C70.0182 23.2717 70.1768 24.4881 68.9085 25.1228C68.8556 25.1228 68.9085 25.3344 68.9085 25.3344C69.3312 25.4401 69.8068 25.7046 70.2296 25.6517C70.7052 25.5988 70.8109 25.1228 70.8637 24.6997C71.0751 22.5841 71.3393 20.5214 71.4978 18.4058C71.6564 16.5017 71.8149 14.5448 71.9206 12.6407C72.132 11.1069 72.2377 9.46732 72.3434 7.88061ZM8.50777 87.3745C8.77199 87.3217 8.93052 87.2688 9.08905 87.2159C9.56464 86.9514 10.0402 86.6341 10.5158 86.4225C12.6824 85.3118 14.8491 84.3069 16.9628 83.1433C20.0806 81.5037 23.0927 79.8112 26.2105 78.1716C28.1657 77.1138 30.1738 76.1618 32.129 75.1569C32.7632 74.8396 33.3973 74.4693 33.9786 74.0991C34.4542 73.8347 34.4542 73.3586 34.2957 72.9355C34.0843 72.4066 33.7144 72.7768 33.4501 72.8826C32.8689 73.0942 32.3933 73.4115 31.812 73.676C30.9136 74.0991 30.0153 74.4165 29.1698 74.8396C27.6373 75.58 26.1577 76.4263 24.6252 77.2196C22.6171 78.2245 20.5562 79.1766 18.5481 80.2344C17.227 80.9219 15.9588 81.7153 14.5848 82.4029C12.7353 83.3549 10.8857 84.2011 9.08905 85.1532C8.71914 85.3647 8.40208 85.6292 8.08501 85.8936C7.71511 86.211 7.87364 86.5812 8.08501 86.8985C8.1907 87.0572 8.40208 87.2159 8.50777 87.3745ZM34.9826 122.97C35.2468 122.864 35.4582 122.811 35.5639 122.705C36.3566 122.123 37.1492 121.542 37.889 120.854C38.0476 120.748 38.1004 120.325 37.9947 120.114C37.572 119.267 37.1492 118.474 36.6736 117.681C36.4094 117.205 35.9867 117.046 35.5111 117.416C35.1412 117.681 34.7184 117.839 34.3485 118.104C33.9257 118.368 33.503 118.421 33.2388 117.998C32.9217 117.575 33.2916 117.257 33.5558 116.94C33.6615 116.781 33.8729 116.729 34.0314 116.623C34.2957 116.464 34.5599 116.305 34.8241 116.147C35.2468 115.882 35.2997 115.618 34.9826 115.195C34.7184 114.825 34.4542 114.401 34.2428 113.978C33.6615 112.973 33.0802 111.968 32.4461 111.016C32.0762 110.435 31.7591 110.382 31.1779 110.805C30.2267 111.44 29.2755 112.021 28.3243 112.603C27.5845 113.026 27.5316 113.291 28.0072 113.978C28.43 114.507 28.7999 115.089 29.1698 115.671C29.8039 116.57 30.2795 117.522 31.0193 118.315C32.0762 119.426 33.0802 120.642 33.8201 121.965C33.9786 122.494 34.6127 122.705 34.9826 122.97ZM261.155 106.415C261.102 106.362 259.358 100.491 259.411 97.6881C259.411 97.2121 259.147 97.2121 258.777 97.3179C257.879 97.5823 256.928 97.741 256.029 98.0055C254.814 98.3757 253.598 98.8517 252.383 99.3277C251.749 99.5393 251.643 100.068 251.749 100.65C252.172 102.766 252.647 104.881 253.07 106.997C253.44 108.742 253.334 108.531 255.025 108.107C256.135 107.843 257.245 107.579 258.302 107.314C258.936 107.155 259.57 107.103 260.151 106.891C260.415 106.785 260.944 106.627 261.155 106.415ZM266.017 35.5422C265.911 35.119 265.911 34.9075 265.805 34.6959C265.488 33.5852 265.118 32.4745 264.801 31.3639C263.85 27.926 262.952 24.4352 261.948 20.9974C261.314 18.776 260.468 16.6075 259.728 14.439C259.517 13.7514 259.253 13.1167 258.988 12.4292C258.619 11.53 258.249 11.4243 257.403 11.8474C257.033 12.0589 256.611 12.2176 256.241 12.3763C255.078 12.9581 253.968 13.5399 252.806 14.1745C252.33 14.439 252.277 14.7034 252.594 15.1795C253.123 16.0786 253.598 17.0306 254.074 17.9826C254.655 19.252 255.237 20.5743 255.818 21.8436C256.399 23.113 256.98 24.3823 257.509 25.6517C257.72 26.0748 257.826 26.5508 258.037 26.974C258.46 27.926 258.988 28.878 259.358 29.8829C260.151 31.787 260.838 33.691 261.578 35.5951C261.895 36.3355 261.684 36.7587 260.944 37.076C260.785 37.1289 260.627 37.2347 260.468 37.3404C259.57 37.8165 258.724 38.2925 257.826 38.7685C257.667 38.8743 257.456 38.9271 257.35 39.0329C257.245 39.1387 257.192 39.4032 257.245 39.5089C257.297 39.6147 257.562 39.7205 257.667 39.6676C257.984 39.5618 258.354 39.456 258.566 39.2445C259.358 38.5569 260.31 38.028 261.314 37.7107C261.842 37.552 262.371 37.3404 262.846 37.1289C263.692 36.7586 264.59 36.3355 265.383 35.9124C265.753 35.9124 265.858 35.648 266.017 35.5422ZM265.911 6.50547C265.805 5.87079 265.435 5.60634 264.801 5.65923C263.005 5.87079 261.261 6.13524 259.517 6.39969C257.456 6.71704 255.395 7.14015 253.281 7.4046C251.485 7.66906 249.635 7.88062 247.786 8.09218C247.521 8.14507 247.257 8.19796 246.993 8.25085C246.676 8.35663 246.412 8.5153 246.464 8.88553C246.623 9.94333 246.782 10.9482 246.94 12.006C246.993 12.4821 247.257 12.5878 247.627 12.2705C248.155 11.9003 248.737 11.5829 249.265 11.1598C250.005 10.6309 250.375 10.6838 250.798 11.4771C251.009 11.8474 251.168 12.1647 251.326 12.535C251.485 12.9581 251.696 13.011 252.119 12.7994C254.021 11.9003 255.924 11.0011 257.826 10.102C258.989 9.52022 259.358 9.626 259.834 10.8954C260.415 12.4821 260.997 14.0159 261.578 15.6026C262.053 16.9777 262.529 18.3 262.952 19.6751C263.322 20.8916 263.639 22.1081 263.956 23.3245C264.22 24.2237 264.484 25.1228 264.696 26.0219C265.013 27.2913 265.33 28.5607 265.647 29.83C265.753 30.2532 265.964 30.4647 266.44 30.3061C267.126 30.0416 267.866 29.8829 268.553 29.6185C268.976 29.4598 269.24 29.1425 269.082 28.6136C268.923 27.9789 268.817 27.3442 268.712 26.6566C268.553 25.5988 268.395 24.541 268.236 23.4832C268.078 22.2139 267.866 20.9445 267.708 19.6751C267.549 18.5115 266.387 9.5731 265.911 6.50547ZM9.72317 69.1803C10.1459 68.9688 10.463 68.863 10.7801 68.7043C11.6256 68.2283 12.4711 67.6465 13.3694 67.2234C15.3246 66.1656 17.2799 65.2136 19.2351 64.1558C20.4505 63.5211 21.6131 62.7806 22.7757 62.093C24.5195 61.0881 26.2634 60.1361 27.9544 59.1312C29.2755 58.3378 30.5437 57.4387 31.8648 56.5925C33.0802 55.7991 34.3485 55.0058 35.5639 54.2124C35.7224 54.1066 35.881 53.8422 35.8281 53.6835C35.7224 53.1546 35.5639 52.6257 35.3525 52.0968C34.5599 50.1927 33.7672 48.3416 32.9745 46.4375C32.816 46.0673 32.7632 45.6971 32.6046 45.3269C31.812 43.4757 31.0193 41.6774 30.2267 39.8263C29.9624 39.1916 29.6982 38.504 29.3812 37.8693C29.1698 37.3933 28.7999 37.2875 28.3243 37.6578C27.9544 37.9222 27.5316 38.1338 27.1617 38.2925C26.369 38.6627 25.5235 39.0329 24.7309 39.4561C24.0439 39.8263 23.4098 40.2494 22.7757 40.6196C21.4017 41.413 20.0278 42.1006 18.7067 42.8939C17.7026 43.4757 16.8043 44.1633 15.8002 44.7451C14.0035 45.8029 12.2068 46.8078 10.463 47.9185C8.08501 49.3465 5.65418 50.8274 3.2762 52.3084C2.95914 52.5199 2.64207 52.7844 2.32501 53.0488C2.06079 53.3133 1.9551 53.5777 2.11364 53.948C2.64208 55.1644 3.11767 56.3809 3.64611 57.5445C4.33308 58.9196 5.0729 60.2948 5.75987 61.6699C6.60538 63.4153 7.45088 65.2136 8.29639 67.0118C8.56061 67.5936 8.82483 68.1754 9.14189 68.7043C9.30043 68.863 9.5118 68.9688 9.72317 69.1803ZM253.229 76.3205C254.021 76.3205 254.338 76.7965 253.968 77.4841C253.651 78.0659 253.863 78.489 254.18 78.9121C254.285 79.0708 254.497 79.2295 254.55 79.3881C254.814 80.0228 255.025 80.7104 255.289 81.3979C255.395 81.7153 255.395 82.1913 255.871 81.9797C257.562 81.1335 259.2 80.2344 260.891 79.3881C262.688 78.489 264.59 77.6956 266.387 76.7965C267.813 76.1089 269.187 75.3685 270.561 74.5751C271.513 74.0462 272.411 73.3058 273.362 72.7769C274.842 71.9835 276.321 71.1901 277.854 70.5026C280.337 69.3919 282.874 68.4399 285.358 67.382C285.992 67.1176 286.203 66.8003 286.045 66.1656C285.516 64.526 285.093 62.7806 284.354 61.2468C283.614 59.7659 283.085 58.1792 282.557 56.6454C282.398 56.1165 282.187 55.5347 281.976 55.0058C281.553 54.0537 280.972 53.1546 280.602 52.2026C279.862 50.5101 279.175 48.8176 278.541 47.0722C278.118 46.0144 278.012 45.9086 276.955 46.3847C274.26 47.4953 271.618 48.5532 268.923 49.6638C267.021 50.4572 265.118 51.2505 263.269 52.0439C262.318 52.467 261.419 53.0488 260.415 53.3662C258.566 53.9479 256.875 54.9 255.131 55.7991C253.493 56.6454 251.855 57.5445 250.216 58.3907C249.212 58.8667 248.208 59.2899 247.204 59.7659C246.412 60.1361 246.359 60.3477 246.57 61.1939C246.729 61.8286 246.94 62.4104 247.151 62.9922C247.574 64.2086 247.891 65.478 248.367 66.6416C249.371 68.9688 250.533 71.2959 251.59 73.5702C251.855 74.152 252.119 74.7867 252.33 75.3685C252.33 76.2676 252.383 76.3734 253.229 76.3205ZM7.34519 83.6193C7.45088 83.8838 7.50373 84.2011 7.66226 84.3598C7.76795 84.4656 8.08501 84.3069 8.29639 84.2011C9.30042 83.6722 10.3045 83.1433 11.3613 82.6144C12.6824 81.9269 14.0035 81.2922 15.3246 80.6575C16.2758 80.1815 17.227 79.6526 18.1782 79.1766C19.2879 78.6477 20.5034 78.1717 21.6131 77.5899C23.3041 76.7436 24.8894 75.7387 26.5804 74.8925C28.5357 73.8876 30.4909 72.9884 32.4461 72.0364C32.9217 71.8248 33.0802 70.767 33.0802 70.6612C33.1331 70.5026 33.503 69.3919 33.5558 69.0745C33.7672 67.8581 33.7672 66.6416 34.19 65.5309C34.4013 64.9491 34.4013 64.3144 34.507 63.6797C34.7184 62.3575 34.9298 60.9823 35.1412 59.6601C35.1412 59.5543 35.2468 59.3956 35.2468 59.2899C35.4582 58.3907 35.6696 57.4387 35.881 56.5396C35.9338 56.1693 35.881 55.9578 35.4582 56.1693C33.9258 57.0685 32.3933 57.9147 30.8608 58.8139C29.2755 59.7659 27.743 60.8237 26.1577 61.7757C24.678 62.6748 23.1456 63.4682 21.6131 64.3144C20.4505 64.9491 19.2879 65.6896 18.1254 66.3242C16.1173 67.4349 14.0564 68.4399 12.1012 69.5506C11.15 70.0795 10.1459 70.7141 9.77602 71.9306C9.35327 73.6231 8.77198 75.2627 8.45492 76.9552C8.03217 79.1237 7.7151 81.398 7.34519 83.6193ZM251.379 36.9702C251.802 37.6578 251.115 38.3982 250.903 38.6627C250.269 39.3503 249.477 39.9321 248.79 40.5667C247.68 41.6245 247.68 41.6245 248.261 43.0526C248.525 43.6873 248.737 43.6873 249.212 43.2112C249.582 42.841 249.952 42.4708 250.375 42.1534C251.273 41.5188 252.224 40.937 253.123 40.3023C254.127 39.6147 255.078 38.9271 256.029 38.1867C256.029 38.1867 256.082 38.1867 256.082 38.1338C257.033 37.6578 257.932 37.1818 258.883 36.6529C259.517 36.2826 260.045 35.4893 259.887 35.0133C259.411 33.5323 258.883 32.0514 258.302 30.5705C257.932 29.5127 257.456 28.5607 256.98 27.5029C256.505 26.3922 256.082 25.3344 255.606 24.2237C254.867 22.637 254.021 21.1032 253.44 19.5165C252.911 18.0355 252.066 16.6604 251.326 15.2852C250.956 14.5977 250.481 13.9101 250.216 13.1696C250.005 12.6936 249.741 12.535 249.318 12.7465C248.103 13.3283 246.887 13.963 245.672 14.5977C243.294 15.867 241.286 17.7182 238.855 18.8289C238.379 19.0404 237.957 19.3049 237.587 19.6222C237.428 19.728 237.375 20.0454 237.428 20.204C237.745 20.9974 238.115 21.7378 238.432 22.4783C238.855 23.4832 239.278 24.4352 239.753 25.4402C240.652 27.45 241.497 29.5127 242.448 31.5225C243.347 33.4266 244.351 35.3306 245.302 37.2347C245.725 38.028 246.095 38.8214 246.464 39.6147C246.834 40.3023 247.046 40.3023 247.521 39.7734C247.838 39.4032 248.155 39.0858 248.473 38.7156C248.842 38.2925 249.212 37.8693 249.635 37.4462C249.846 37.3933 250.956 36.3355 251.379 36.9702ZM50.8887 34.4844C51.0472 34.2728 51.1529 33.8497 51.4171 33.691C51.787 33.4795 52.2098 33.691 52.4212 34.0612C52.6854 34.5901 52.9496 34.4315 53.2667 34.167C54.165 33.4266 55.1162 32.6861 56.0674 31.9456C57.0714 31.1523 58.1812 30.4647 59.1852 29.6714C59.9779 29.0896 60.7705 28.4549 61.616 27.926C63.0957 26.9211 64.6281 25.9162 66.1606 24.9113C66.9533 24.3824 66.9533 23.7477 66.372 23.0601C66.1078 22.7428 65.8435 22.3725 65.685 22.0023C64.9452 20.5743 64.2054 19.1462 63.4127 17.7711C62.303 15.867 61.1933 13.963 60.0835 12.0589C59.925 11.7945 59.7136 11.4771 59.4494 11.3185C59.3437 11.2656 59.0267 11.5829 58.7625 11.7416C57.5999 12.4821 56.4373 13.1696 55.3276 13.963C54.5349 14.4919 53.7951 15.1795 52.9496 15.6555C51.5757 16.5017 50.096 17.1364 48.7749 18.0355C46.5026 19.6222 43.9661 20.7329 41.5353 22.0552C40.6369 22.5312 39.7386 22.9014 38.8931 23.4303C37.8891 24.0121 37.889 24.065 38.4175 25.0699C38.4703 25.1757 38.5232 25.3344 38.576 25.4402C38.9988 26.2335 39.263 27.0798 39.7914 27.8202C41.2182 29.8829 42.3279 32.1043 44.2303 33.8497C45.1287 34.643 45.6571 35.8595 46.2913 36.9173C46.8725 37.9222 47.401 38.0809 48.405 37.4462C48.7749 37.2347 49.1977 37.076 49.4619 36.8115C49.9903 36.124 51.4171 36.0711 50.8887 34.4844ZM169.629 18.6173C169.629 18.5644 169.629 18.5644 169.629 18.6173C170.316 18.5115 171.109 18.5644 171.743 18.3529C172.43 18.1413 173.011 17.6653 173.645 17.2951C175.812 16.0257 176.605 13.3812 175.653 11.7945C174.861 10.4722 174.015 9.14998 172.536 8.72686C170.686 8.19796 168.784 7.72194 166.881 7.61616C163.499 7.4046 160.117 6.82281 156.735 7.03438C154.569 7.14016 152.349 7.08726 150.183 7.14015C147.54 7.24593 144.845 7.40461 142.203 7.56328C140.565 7.66906 138.98 7.82773 137.342 7.9864C136.655 8.03929 135.915 8.09218 135.228 8.19796C133.642 8.40952 132.057 8.56819 130.472 8.83264C129.256 8.99131 128.094 9.25576 126.878 9.46732C124.5 9.89044 122.175 10.2607 119.85 10.8425C118.318 11.2127 116.785 11.7416 115.306 12.3763C114.09 12.9052 112.928 13.5928 111.818 14.3861C110.867 15.0737 110.602 16.343 111.025 17.2951C111.237 17.7711 111.448 18.4058 111.871 18.6702C112.188 18.8818 112.822 18.6702 113.297 18.6173H113.403C115.464 18.5644 117.578 18.4586 119.639 18.4586C122.281 18.4586 124.923 18.6173 127.565 18.6702C129.891 18.7231 132.268 18.776 134.594 18.7231C137.606 18.6702 140.618 18.5644 143.683 18.4586C145.902 18.4058 148.122 18.3529 150.341 18.3529C154.093 18.3 157.845 18.3 161.597 18.3529C164.186 18.3529 166.934 18.5115 169.629 18.6173ZM131.212 1.95692C130.525 2.00981 129.996 2.0627 129.521 2.16848C127.882 2.43293 126.191 2.69738 124.553 2.96183C122.387 3.27917 120.167 3.54362 118.001 3.91385C116.574 4.1783 115.2 4.65431 113.773 4.86588C111.659 5.18322 109.651 5.76501 107.643 6.50547C106.164 7.03438 104.684 7.51038 103.257 8.03929C101.038 8.83264 99.3995 10.4722 97.8142 12.1647C97.3914 12.6407 96.9687 13.1167 96.5988 13.6456C96.3874 13.963 96.2289 14.3861 96.176 14.8092C96.0175 16.2902 96.5988 17.5066 97.6028 18.5115C98.2369 19.1462 99.0296 19.4636 99.9808 19.3578C101.091 19.1991 102.2 19.252 103.31 19.1991C105.265 19.0933 107.273 18.9876 109.229 18.9347C109.757 18.9347 109.863 18.776 109.651 18.3529C109.017 17.2422 109.123 16.1315 109.598 15.0208C109.704 14.7034 109.915 14.3861 110.18 14.1217C112.241 12.1118 114.883 11.1069 117.525 10.3136C118.846 9.94333 120.167 9.67888 121.488 9.36154C123.074 8.99131 124.606 8.62108 126.191 8.35663C127.988 8.03929 129.838 7.77483 131.634 7.51038C132.903 7.29882 134.171 7.08727 135.439 6.9286C137.817 6.71704 140.142 6.55836 142.52 6.45258C146.325 6.24102 150.13 5.97657 153.935 5.87079C156.26 5.8179 158.638 5.92368 160.963 6.02946C164.345 6.18813 167.727 6.45258 171.109 6.98148C172.007 7.14015 173.011 7.29882 173.804 7.77483C175.336 8.72686 176.446 10.102 177.133 11.7945C177.714 13.2225 177.662 14.7034 176.922 16.0786C176.552 16.7662 175.759 17.2951 175.178 17.8769C175.072 17.9826 174.966 18.0884 174.914 18.2471C175.072 18.3 175.178 18.4058 175.336 18.4058C176.129 18.4058 176.922 18.3529 177.714 18.3C179.617 18.1942 181.572 18.0884 183.474 17.9826C184.161 17.9297 187.015 17.2951 187.015 17.2951C187.015 17.2951 191.031 13.3812 189.974 10.4193C189.657 9.09709 188.97 7.9864 187.86 7.29883C186.434 6.3468 184.743 5.92368 183.157 5.39478C180.409 4.49564 177.662 3.80807 174.808 3.43784C172.483 3.1205 170.158 2.85605 167.833 2.5916C165.666 2.32715 163.552 2.00981 161.386 1.85114C159.325 1.69247 157.264 1.58668 155.203 1.53379C153.142 1.42801 151.081 1.26935 149.073 1.37513C146.272 1.48091 143.524 1.37512 140.724 1.69247C137.5 1.85114 134.277 1.79825 131.212 1.95692ZM121.911 131.22C121.911 131.168 121.911 131.115 121.911 131.062C119.903 131.22 117.895 131.326 115.94 131.485C115.464 131.538 115.2 131.697 115.253 132.225C115.306 133.495 115.358 134.817 115.464 136.086C115.623 137.62 115.94 139.154 116.045 140.688C116.204 143.121 116.204 145.554 116.362 147.987C116.468 149.679 116.574 151.372 116.679 153.064C116.838 155.021 117.049 156.978 117.155 158.988C117.261 161.156 117.208 163.378 117.261 165.546C117.314 166.763 117.419 167.979 117.472 169.196C117.472 170.148 118.106 170.941 117.842 171.946C117.789 172.105 117.842 172.263 117.842 172.422C117.842 172.739 117.895 172.898 118.265 172.898C119.005 172.845 119.797 172.898 120.537 172.898C122.598 172.898 124.659 173.004 126.773 172.951C129.045 172.898 131.37 172.633 133.642 172.475C134.171 172.422 134.699 172.263 135.228 172.263C138.028 172.21 140.829 172.21 143.577 172.157C146.642 172.105 149.76 171.999 152.825 171.893C153.987 171.84 155.203 171.893 156.365 171.84C156.788 171.84 157.158 171.787 157.158 171.205C157.105 169.566 157.158 167.926 157.105 166.287C156.947 163.589 156.682 160.945 156.524 158.247C156.365 156.238 156.26 154.228 156.207 152.271C156.154 149.838 156.154 147.352 156.154 144.919C156.154 142.539 156.313 140.106 156.313 137.726C156.26 135.346 155.995 132.966 155.89 130.639C155.837 130.004 155.626 129.845 155.044 129.845C153.3 129.951 151.557 129.951 149.866 130.057C147.91 130.163 145.955 130.321 144.053 130.427C141.093 130.586 138.134 130.692 135.228 130.797C133.008 130.903 130.736 130.956 128.517 131.009C126.191 131.009 124.078 131.115 121.911 131.22ZM158.585 169.037H158.532V170.359C158.532 171.576 158.532 171.576 159.747 171.523H159.906C161.597 171.417 163.288 171.417 165.032 171.258C166.194 171.153 167.357 170.888 168.52 170.729C170.158 170.518 171.796 170.359 173.434 170.148C174.121 170.042 174.808 169.883 175.495 169.672C176.605 169.301 177.662 168.931 178.771 168.508C180.145 168.032 181.519 167.609 182.84 166.974C184.848 166.022 186.751 164.859 188.653 163.801C191.454 162.267 194.202 160.68 196.791 158.776C197.478 158.3 198.165 157.824 198.852 157.348C199.909 156.608 200.966 155.92 202.023 155.127C202.868 154.492 203.661 153.699 204.559 153.17C205.616 152.535 206.356 151.636 207.201 150.843C208.311 149.785 209.315 148.621 210.319 147.405C212.222 145.078 214.071 142.698 215.656 140.159C217.295 137.567 218.986 135.029 220.571 132.437C221.786 130.48 222.896 128.523 224.059 126.566C224.798 125.35 225.485 124.133 226.225 122.917C226.806 122.018 227.441 121.171 228.075 120.272C229.079 118.686 230.03 117.099 231.087 115.565C232.038 114.243 233.148 112.973 234.205 111.704C234.416 111.44 234.575 111.175 234.786 110.964C235.737 110.117 236.741 109.271 237.692 108.425C238.221 107.949 238.221 107.79 237.64 107.42C235.42 105.992 233.201 104.617 230.981 103.189C228.709 101.708 226.437 100.227 224.164 98.7459C223.266 98.1641 222.368 97.6352 221.522 97.0534C218.88 95.2023 216.238 93.5098 213.331 92.0818C211.112 90.9711 208.945 89.8075 206.937 88.2208C204.823 86.5283 202.445 85.1532 200.173 83.6722C199.909 83.4607 199.75 83.5136 199.75 83.8838V84.3069C199.697 87.3216 199.697 90.3364 199.592 93.3511C199.539 95.7841 199.328 98.2699 199.275 100.703C199.169 104.352 199.063 108.002 198.905 111.651C198.799 113.661 198.535 115.724 198.535 117.733C198.482 121.224 198.006 124.662 198.165 128.153C198.218 128.946 197.742 129.264 196.95 129.105C196.685 129.052 196.368 128.946 196.104 128.946C194.889 128.946 193.62 128.946 192.405 128.999C191.031 129.052 189.657 129.211 188.283 129.264C187.755 129.316 187.173 129.264 186.645 129.316C185.482 129.369 184.32 129.581 183.157 129.581C181.149 129.581 179.088 129.422 177.08 129.422C174.174 129.422 171.215 129.422 168.308 129.475C166.776 129.475 165.243 129.475 163.711 129.475C161.703 129.528 159.695 129.581 157.739 129.634C157.264 129.634 157.052 129.792 157.052 130.268C157.052 131.115 157.105 131.961 157.105 132.807C157.211 135.61 157.317 138.414 157.422 141.27V141.746C157.317 143.65 157.158 145.607 157.158 147.511C157.105 149.097 157.211 150.737 157.317 152.324C157.528 155.338 157.792 158.3 158.004 161.315C158.268 163.854 158.426 166.445 158.585 169.037ZM80.6927 99.9095C80.5342 97.741 80.4285 95.5725 80.27 93.4569C80.2171 92.9809 80.1114 92.8222 79.6358 93.0338C79.4245 93.1396 79.2659 93.1925 79.0546 93.2982C77.3635 94.1974 75.6725 95.0965 73.9287 95.9956C73.1889 96.3659 72.3434 96.5774 71.6035 97.0005C68.9613 98.4815 66.4248 99.9624 63.7826 101.443C61.6689 102.607 59.4494 103.718 57.3357 104.934C54.165 106.732 50.8358 108.213 47.7709 110.223C46.2384 111.228 44.6002 112.074 43.0149 112.973C41.3768 113.978 39.7914 114.983 38.1533 115.988C37.6777 116.253 37.5191 116.57 37.8362 117.099C38.4703 118.157 39.0516 119.214 39.5801 120.272C39.6857 120.484 39.7386 120.854 39.6329 121.013C39.1573 121.542 38.6289 121.965 38.0476 122.441C37.2021 123.128 37.2021 122.97 37.8362 123.922C38.6817 125.244 39.5801 126.566 40.3199 127.941C41.1654 129.581 41.641 131.432 42.1166 133.23C42.6979 135.505 42.6979 137.832 42.4336 140.159C42.3279 141.005 42.1166 141.799 41.8524 142.592C41.5353 143.544 41.1654 144.496 40.7426 145.395C40.267 146.506 39.7386 147.616 39.1045 148.621C38.1004 150.208 36.6208 151.372 35.2997 152.694C34.4542 153.54 33.5558 154.281 32.6046 154.968C30.8079 156.343 28.9056 157.56 27.1089 158.935C24.9423 160.627 22.8813 162.373 20.7676 164.118C19.3408 165.282 18.1782 166.71 17.227 168.297C16.6986 169.196 16.1173 170.042 15.6417 170.941C14.7962 172.633 14.3206 174.379 15.3775 176.23C15.7474 176.865 15.9588 177.605 16.3287 178.24C16.8571 179.086 17.227 180.144 18.2839 180.567C18.7067 180.726 19.2351 180.831 19.7107 180.937C21.983 181.519 24.2553 181.149 26.4219 180.514C28.43 179.932 30.3852 179.033 32.2876 178.028C34.0843 177.076 35.6696 175.86 37.4663 174.802C39.5801 173.586 41.2711 171.84 43.4905 170.782C44.4946 170.306 45.3929 169.672 46.3969 169.143C48.5635 168.032 50.8358 167.186 53.1081 166.392C54.852 165.811 56.6487 165.705 58.4982 165.705C59.6608 165.705 60.8234 165.864 61.9859 165.969C63.5712 166.022 65.1037 166.287 66.6362 166.816C68.0102 167.292 69.3841 167.768 70.758 168.244C71.8149 168.561 72.8718 168.825 73.9287 169.196C74.51 169.407 75.0384 169.777 75.6197 169.883C77.205 170.253 78.7903 170.624 80.3228 171.205C82.278 171.999 84.3389 172.528 86.2942 173.374C87.721 174.009 89.2535 174.22 90.7331 174.379C92.6883 174.538 94.6435 174.538 96.5459 174.643C98.1841 174.749 99.8751 174.749 101.513 174.432C102.359 174.273 103.151 174.167 103.997 174.009C105.107 173.797 106.216 173.586 107.326 173.374C108.33 173.162 109.334 172.898 110.338 172.845C111.818 172.739 113.35 172.686 114.883 172.686C115.517 172.686 115.728 172.316 115.993 171.893C116.415 171.1 116.362 170.253 116.204 169.407C116.151 169.196 116.098 168.984 116.098 168.773C116.098 166.075 116.098 163.378 116.045 160.733C115.993 159.517 115.728 158.3 115.623 157.031C115.517 155.55 115.464 154.016 115.358 152.535C115.253 151.266 115.041 149.997 114.988 148.674C114.777 145.395 114.724 142.116 114.513 138.89C114.354 136.668 114.09 134.447 113.932 132.225C113.879 131.697 113.667 131.591 113.245 131.644C111.501 131.802 109.81 131.908 108.066 132.067C105.899 132.225 103.733 132.384 101.566 132.596C99.5052 132.754 97.3914 132.596 95.2777 132.86C92.8997 133.177 90.416 133.495 87.9852 133.125C86.5584 132.913 85.0788 132.966 83.652 132.913C82.8065 132.86 82.3309 132.437 82.3309 131.749C82.3309 129.581 82.278 127.412 82.2252 125.244C82.1723 122.97 82.0667 120.695 82.0138 118.421C82.0138 118.051 82.0667 117.628 82.0138 117.257C81.8553 114.719 81.274 112.233 81.4325 109.694C81.274 109.536 80.587 99.9095 80.6927 99.9095ZM194.942 127.518V127.571C195.364 127.571 195.787 127.624 196.21 127.571C196.421 127.571 196.738 127.412 196.791 127.254C197.002 126.355 197.267 125.455 197.32 124.556C197.425 123.128 197.32 121.7 197.372 120.272C197.478 117.945 197.637 115.618 197.795 113.344C197.901 111.81 197.901 110.223 197.954 108.689C198.059 105.622 198.165 102.501 198.271 99.4335C198.324 98.1112 198.324 96.7361 198.324 95.4138C198.376 92.9809 198.535 90.4951 198.588 88.0621C198.588 85.3647 198.482 82.6144 198.482 79.917C198.482 77.6956 198.641 75.4743 198.799 73.3058C198.905 71.5604 199.011 69.7621 199.116 68.0167C199.328 65.3722 199.592 62.7806 199.698 60.1361C199.803 57.3858 199.75 54.5826 199.75 51.8323C199.75 50.9332 199.856 49.9812 199.856 49.0821C199.856 47.6011 199.75 46.1202 199.75 44.6393C199.75 43.9517 199.856 43.2112 199.856 42.5237C199.909 39.7734 199.909 37.0231 199.909 34.3257C199.909 33.1621 200.015 31.9456 200.015 30.7821C200.015 26.8682 200.015 22.9543 200.015 19.0933C200.015 18.3 199.962 18.1942 199.169 18.2471C197.002 18.3 194.783 18.3529 192.616 18.4586C191.401 18.5115 190.133 18.6173 188.917 18.7231C186.434 18.9347 183.95 19.3049 181.466 19.4107C178.137 19.5165 174.808 19.8338 171.479 19.728C169.048 19.6222 166.564 19.6222 164.133 19.5693C161.174 19.5165 158.215 19.4636 155.256 19.5165C152.561 19.5165 149.813 19.6751 147.118 19.728C145.744 19.7809 144.37 19.728 142.996 19.7809C138.927 19.8338 134.805 19.9925 130.736 19.9925C128.199 19.9925 125.61 19.8338 123.074 19.7809C121.435 19.728 119.797 19.728 118.159 19.728C116.362 19.7809 114.513 19.8338 112.716 19.9396C110.761 20.0454 108.753 20.1511 106.798 20.204C105.424 20.2569 104.05 20.204 102.729 20.3098C100.298 20.4685 97.8142 20.6271 95.3834 20.8916C91.6314 21.2089 87.8795 21.5792 84.1276 22.0023C82.8065 22.161 82.4894 22.4783 82.4894 23.8006C82.4894 24.9641 82.4366 26.1806 82.3837 27.3442C82.278 30.2532 82.1195 33.1621 82.0138 36.0182C81.9081 38.8743 81.961 41.7832 81.8553 44.6393C81.7496 48.3416 81.5911 52.0968 81.4854 55.7991C81.4325 58.3378 81.3797 60.8766 81.274 63.4153C81.1683 65.7425 80.9569 68.0696 80.9569 70.3968C80.9569 75.6329 81.0626 80.9219 81.1155 86.1581C81.1155 87.2159 81.0098 88.3266 81.0626 89.3844C81.1683 91.1297 81.4325 92.8222 81.5911 94.5676C81.5911 94.6734 81.6439 94.8321 81.6439 94.9378C81.7496 97.3708 81.8024 99.8566 81.9081 102.29C82.0667 105.41 82.2252 108.531 82.3837 111.704C82.4894 113.925 82.6479 116.094 82.8065 118.315C82.9122 119.743 83.0179 121.224 83.0707 122.652C83.1235 123.869 83.1764 125.138 83.2292 126.355C83.2821 127.571 83.4406 128.84 83.3878 130.057C83.3878 131.22 83.652 131.749 84.9731 131.749C87.1925 131.802 89.412 132.225 91.5786 132.173C94.8021 132.12 98.0256 131.802 101.249 131.538C103.733 131.379 106.216 131.115 108.7 130.956C111.606 130.744 114.46 130.48 117.366 130.321C119.163 130.216 120.96 130.216 122.757 130.163C126.35 130.004 129.891 129.845 133.484 129.687C134.277 129.634 135.122 129.581 135.915 129.581C137.923 129.528 139.984 129.475 141.992 129.369C145.585 129.211 149.179 128.946 152.825 128.788C155.626 128.629 158.426 128.576 161.174 128.47C163.341 128.417 165.507 128.312 167.674 128.259C170.052 128.259 172.43 128.259 174.808 128.312C176.182 128.312 177.609 128.364 178.983 128.364C180.991 128.364 182.999 128.47 185.007 128.417C188.336 128.047 191.612 127.73 194.942 127.518ZM201.336 31.5754C201.336 32.6332 201.441 33.691 201.441 34.7488C201.441 35.9124 201.336 37.076 201.336 38.2396C201.283 39.985 201.177 41.6774 201.124 43.4228C201.071 45.8029 201.124 48.1829 201.124 50.5101C201.124 52.2026 201.071 53.8422 201.019 55.5347C201.019 57.1214 201.071 58.7081 200.966 60.2419C200.86 62.569 200.649 64.8433 200.49 67.1705C200.332 69.4448 200.173 71.7719 200.015 74.0462C199.909 75.5271 199.909 77.0081 199.856 78.489C199.856 78.9121 199.909 79.1766 200.384 78.8063C201.441 77.9601 202.498 77.1667 203.502 76.2676C205.616 74.3107 207.677 72.2479 209.791 70.291C211.904 68.387 214.018 66.4829 216.132 64.6318C217.189 63.7326 218.404 62.9393 219.567 62.093C220.994 61.0881 222.368 60.0832 223.794 59.0254C225.433 57.8618 227.071 56.6453 228.709 55.4818C230.083 54.4769 231.51 53.5248 232.884 52.5199C234.733 51.1448 236.53 49.6638 238.326 48.2358C239.172 47.6011 239.965 46.8607 240.757 46.226C241.92 45.3269 243.03 44.3748 243.928 43.2112C244.245 42.7881 244.668 42.4179 245.091 42.0477C245.566 41.6245 245.566 41.2014 245.249 40.6196C244.456 39.1387 243.717 37.6049 242.924 36.124C240.704 31.9985 238.908 27.7144 237.058 23.4303C236.635 22.3725 236.001 21.4205 235.42 20.4156C235.209 19.9925 235.526 19.1991 236.054 18.9347C237.428 18.2471 238.749 17.5595 240.123 16.8719C240.493 16.6604 240.81 16.3959 241.18 16.1844C242.448 15.3381 243.769 14.5448 245.038 13.6985C245.302 13.5399 245.513 13.0639 245.46 12.7994C245.408 11.5829 245.249 10.3136 245.143 9.09709C245.091 8.72686 245.038 8.35663 245.038 7.9864C244.985 7.14016 245.408 6.71703 246.253 6.71703C248.895 6.82281 251.432 6.39969 254.021 6.02946C256.029 5.71212 258.037 5.44767 259.993 5.13033C261.314 4.91877 262.582 4.60143 263.85 4.38987C264.643 4.28409 265.488 4.28409 266.281 4.28409C266.757 4.28409 266.968 4.54854 266.968 5.07744C267.074 7.24594 267.391 9.41443 267.813 11.5829C268.025 12.6936 268.025 13.9101 268.131 15.0208C268.289 16.4488 268.342 17.8769 268.553 19.252C268.976 22.0023 269.452 24.7526 269.874 27.5029C269.98 28.0847 270.086 28.7193 270.244 29.3011C270.403 30.0945 270.139 30.5176 269.346 30.7292C268.765 30.8878 268.183 30.9936 267.602 31.2052C266.704 31.5754 266.44 32.1572 266.598 33.0563C266.809 34.0084 266.968 34.9075 267.232 35.8595C267.338 36.2826 267.285 36.5471 266.862 36.7586C265.753 37.1818 264.643 37.6049 263.586 38.0809C262.423 38.5569 261.261 38.8743 260.31 39.7734C259.623 40.3552 258.777 40.8312 257.932 41.2014C257.086 41.6245 256.611 41.4659 256.188 40.5667C255.871 39.9321 255.554 40.0378 255.184 40.3552C253.863 41.3072 252.594 42.2063 251.273 43.1584C251.115 43.2641 249.424 44.3748 248.842 44.9566C248.314 45.4326 247.627 45.3269 247.31 44.6922C247.046 44.2162 246.834 43.7401 246.57 43.317C246.412 42.9997 246.2 42.841 245.83 43.2641C245.091 44.1104 244.298 44.9566 243.505 45.75C243.03 46.226 242.395 46.6491 241.867 47.1251C240.282 48.4474 238.749 49.8225 237.164 51.0919C234.839 52.8902 232.408 54.5826 230.03 56.328C226.754 58.7081 223.477 61.141 220.201 63.4682C218.193 64.8433 216.343 66.3772 214.547 68.0696C212.856 69.6563 211.059 71.1373 209.368 72.6711C208.153 73.7818 207.096 75.0511 205.88 76.1089C204.718 77.1667 203.502 78.1188 202.34 79.1237C202.234 79.1766 202.128 79.2295 202.075 79.3352C201.917 79.4939 201.811 79.7055 201.653 79.8641C201.864 79.917 202.075 79.9699 202.287 79.9699C204.929 79.8112 207.571 79.6526 210.161 79.4939C211.535 79.3881 212.961 79.3352 214.335 79.2294C215.973 79.0708 217.612 78.8592 219.303 78.7534C221.311 78.5948 223.372 78.4361 225.38 78.2774C227.916 78.0659 230.453 77.8014 232.989 77.6427L239.648 77.1667C241.074 77.061 242.501 76.8494 243.875 76.7965C245.936 76.6907 247.944 76.7436 250.005 76.6907H250.533C250.851 76.6907 250.956 76.5321 250.798 76.2147C250.639 75.9503 250.481 75.6329 250.375 75.3685C248.79 71.9835 247.099 68.7043 245.672 65.2664C245.038 63.7326 244.826 61.9873 244.456 60.2948C244.404 60.0832 244.615 59.713 244.773 59.5014C244.932 59.2899 245.196 59.237 245.46 59.1312C246.94 58.4436 248.473 57.8089 249.952 57.0685C251.749 56.1693 253.493 55.1115 255.289 54.2124C256.769 53.4719 258.302 52.8373 259.781 52.1497C260.574 51.7795 261.419 51.4092 262.212 51.039C265.118 49.8225 268.078 48.606 270.984 47.3896C272.199 46.8607 273.362 46.2789 274.525 45.75C275.634 45.3269 276.744 44.9566 277.854 44.5864C278.382 44.4277 278.646 44.7451 278.805 45.1682C279.228 46.2789 279.598 47.3896 280.073 48.5003C280.707 50.087 281.341 51.7795 282.081 53.3133C282.768 54.6355 283.191 56.0107 283.72 57.3858C284.565 59.6601 285.516 61.8286 286.415 64.05C286.784 64.9491 287.154 65.7954 287.524 66.6945C287.894 67.6465 287.63 68.1225 286.679 68.4928C283.561 69.7092 280.496 70.9257 277.431 72.1422C275.053 73.0413 273.098 74.6809 270.878 75.8974C269.504 76.6378 268.183 77.3783 266.809 78.0659C264.326 79.2823 261.789 80.393 259.306 81.6624C258.037 82.2971 256.822 83.1433 255.606 83.8838C254.92 84.3069 254.655 84.3069 254.233 83.6193C253.704 82.7202 253.281 81.7682 252.859 80.869C252.489 80.1815 252.172 79.441 251.855 78.7005C251.643 78.1716 251.168 78.0659 250.745 78.0659C249.16 78.0659 247.574 78.0659 245.989 78.1716C243.822 78.2774 241.656 78.489 239.542 78.6477C237.217 78.8063 234.892 78.8063 232.619 79.0179C230.294 79.2295 228.022 79.5997 225.75 79.917C225.485 79.9699 225.168 79.8641 224.904 79.8641C222.262 80.0757 219.673 80.2344 217.03 80.5517C214.969 80.8162 212.908 80.9748 210.848 81.0277C208.734 81.0806 206.673 81.1864 204.559 81.3451C203.344 81.4508 202.181 81.6624 200.966 81.8211C200.807 81.8211 200.649 81.9798 200.543 82.0855C200.649 82.1913 200.702 82.35 200.86 82.4029C202.128 83.302 203.397 84.254 204.718 85.1532C206.197 86.211 207.677 87.2688 209.051 88.4852C210.055 89.3844 211.165 90.1777 212.486 90.7066C213.49 91.0769 214.441 91.7644 215.392 92.2933C216.925 93.1925 218.51 94.0916 220.042 95.0436C221.258 95.7841 222.315 96.789 223.583 97.3708C225.115 98.0584 226.278 99.3277 227.705 100.121C229.237 100.967 230.664 102.025 232.144 102.977C233.571 103.876 235.05 104.775 236.53 105.675C237.322 106.151 238.062 106.732 238.855 107.208C239.066 107.314 239.436 107.367 239.648 107.314C241.761 106.521 243.822 105.622 245.989 104.881C247.151 104.458 248.367 104.247 249.582 103.982C250.269 103.823 250.428 103.665 250.322 102.924C250.111 101.761 249.952 100.65 249.794 99.4864C249.741 99.0633 249.846 98.8517 250.322 98.693C253.017 97.8997 255.765 97.0534 258.46 96.2601C258.883 96.1543 259.306 96.1014 259.728 96.0485C260.521 95.8899 260.627 95.9427 260.732 96.6832C260.838 97.3179 260.891 97.9526 260.838 98.5872C260.785 99.5393 260.997 99.7508 261.948 99.6451C263.216 99.5393 264.484 99.4864 265.753 99.4335C266.545 99.4335 266.862 100.015 266.44 100.65C266.281 100.862 265.964 100.967 265.7 100.967C264.379 101.02 263.057 101.073 261.736 101.073C261.261 101.073 260.944 101.232 261.155 101.814V101.866C261.419 103.559 261.419 103.559 263.057 103.4C264.114 103.294 265.171 103.189 266.175 103.136C266.704 103.083 267.021 103.347 267.074 103.823C267.074 104.352 266.704 104.67 266.175 104.67C264.801 104.723 263.427 104.828 262.106 104.881C261.789 104.881 261.736 105.093 261.842 105.357C262.053 105.939 262.265 106.521 262.423 107.103C262.635 107.843 262.371 108.319 261.578 108.372C259.253 108.531 257.139 109.43 254.92 109.906C254.391 110.012 253.863 110.223 253.334 110.435C252.542 110.699 252.066 110.488 251.855 109.747C251.537 108.583 251.22 107.473 251.009 106.309C250.903 105.727 250.639 105.463 250.058 105.622C249.16 105.833 248.261 105.992 247.363 106.256C246.042 106.627 244.721 107.05 243.452 107.526C242.713 107.79 242.026 108.16 241.286 108.478C240.969 108.636 241.022 108.742 241.286 108.901C242.237 109.588 243.188 110.276 244.139 110.964C244.456 111.175 244.773 111.281 245.091 111.44C245.566 111.704 245.672 112.074 245.355 112.55C245.143 112.92 244.509 112.92 244.086 112.656C242.765 111.704 241.391 110.752 240.07 109.747C239.753 109.483 239.489 109.483 239.172 109.747C237.27 111.228 235.42 112.815 233.94 114.772C233.253 115.724 232.461 116.57 231.774 117.575C229.66 120.484 227.652 123.499 225.855 126.619C224.429 129.105 222.843 131.485 221.364 133.918C220.518 135.346 219.725 136.827 218.827 138.202C217.136 140.741 215.392 143.227 213.648 145.66C211.693 148.41 209.368 150.896 207.043 153.329C206.514 153.857 205.933 154.281 205.299 154.704C203.344 156.185 201.389 157.666 199.433 159.146C198.112 160.099 196.791 161.051 195.417 161.897C192.986 163.378 190.555 164.806 188.072 166.234C186.275 167.239 184.426 168.244 182.523 169.09C180.991 169.777 179.353 170.253 177.767 170.835C176.975 171.1 176.182 171.47 175.389 171.629C173.645 171.999 171.849 172.263 170.105 172.528C167.78 172.845 165.455 173.162 163.129 173.427C162.02 173.533 160.91 173.638 159.8 173.691C159.377 173.691 159.43 173.903 159.642 174.114C160.223 174.749 160.857 175.384 161.438 175.966C161.967 176.547 162.548 177.076 163.077 177.658C163.235 177.817 163.394 178.028 163.446 178.24C163.499 178.504 163.552 178.927 163.394 179.086C163.077 179.351 162.707 179.245 162.442 178.927C161.016 177.552 159.536 176.177 158.109 174.802C157.158 173.85 155.943 173.691 154.727 173.691C152.191 173.691 149.654 173.744 147.065 173.797C145.955 173.797 144.845 173.744 143.736 173.744C141.569 173.744 139.455 173.797 137.289 173.85C135.598 173.903 133.907 174.009 132.216 174.114C130.049 174.273 127.935 174.485 125.769 174.538C123.655 174.59 121.488 174.538 119.375 174.538C118.318 174.538 117.261 174.59 116.257 174.643C116.045 174.643 115.781 174.802 115.675 174.961C114.988 175.913 114.354 176.865 113.72 177.817C113.086 178.822 112.452 179.879 111.871 180.937C111.606 181.36 111.237 181.466 110.867 181.202C110.497 180.937 110.55 180.567 110.761 180.197C111.606 178.875 112.452 177.499 113.297 176.177C113.456 175.913 113.667 175.595 113.879 175.331C114.249 174.749 114.143 174.59 113.509 174.59C111.289 174.59 109.123 174.749 107.009 175.225C105.318 175.595 103.627 175.754 101.936 176.124C99.7694 176.6 97.6028 176.283 95.4362 176.336C94.5907 176.389 93.7452 176.442 92.8997 176.336C91.5257 176.177 90.1518 175.966 88.7779 175.754C87.721 175.542 86.6112 175.384 85.5544 175.066C83.5463 174.432 81.5382 173.586 79.5301 172.951C77.5749 172.316 75.5668 171.734 73.6116 171.1C71.9734 170.571 70.3353 169.989 68.6971 169.46C66.6362 168.773 64.5753 167.979 62.4087 167.715C59.2909 167.344 56.1731 167.239 53.1081 168.244C50.5188 169.143 47.9294 170.148 45.4986 171.417C42.8035 172.845 40.4784 174.802 37.9419 176.442C36.885 177.129 35.7753 177.764 34.7184 178.399C33.9786 178.822 33.2388 179.298 32.499 179.721C30.2267 180.884 27.9544 181.995 25.3122 182.312C23.2512 182.524 21.2432 182.683 19.1823 182.418C18.1782 182.26 17.1213 182.154 16.3815 181.307C16.2758 181.202 16.1173 181.096 16.0645 180.99C14.9547 179.086 13.845 177.129 13.528 174.908C13.3166 173.268 13.845 171.734 14.6905 170.306C16.3287 167.609 18.1254 165.123 20.609 163.166C23.1984 161.103 25.7349 159.041 28.3243 156.978C30.0153 155.656 31.812 154.545 33.4501 153.17C34.5599 152.271 35.5639 151.16 36.5151 150.102C37.2549 149.256 37.8362 148.357 38.4703 147.458C38.6289 147.246 40.0557 143.544 40.6369 142.116C41.2182 140.688 41.1125 139.101 41.2182 137.567C41.2711 136.668 41.0597 135.716 40.9012 134.817C40.6898 133.759 40.5312 132.701 40.1613 131.697C39.6329 130.216 39.1045 128.735 37.9947 127.518C37.3078 126.725 36.7265 125.826 36.0924 124.979C35.881 124.662 35.6696 124.662 35.2997 124.821C33.8201 125.35 33.5558 125.297 32.9217 124.08C31.7591 121.965 30.121 120.219 28.6942 118.315C27.5845 116.834 26.739 115.089 25.7878 113.449C25.6821 113.291 25.6292 112.973 25.7349 112.868C26.1577 112.444 25.8935 112.021 25.6821 111.651C24.8894 110.382 24.0968 109.112 23.3041 107.843C22.8813 107.155 22.9342 106.838 23.674 106.468C24.8894 105.886 26.1048 105.251 27.3202 104.67C27.9544 104.352 28.3243 104.511 28.6413 105.146C29.3283 106.521 30.0681 107.896 30.7551 109.271C30.9136 109.536 31.0193 109.694 31.3364 109.43C31.7063 109.165 31.9705 109.377 32.1819 109.694C32.9217 110.805 33.6615 111.863 34.4013 112.973C34.8241 113.608 35.2997 114.296 35.7224 114.93C36.0395 115.406 36.4623 115.512 36.9379 115.195C38.9459 114.031 40.954 112.868 42.9621 111.704C44.336 110.911 45.8157 110.17 47.1896 109.377C48.8806 108.425 50.5716 107.367 52.3155 106.415C55.0634 104.881 57.8113 103.453 60.5591 101.919C62.99 100.544 65.3679 99.1162 67.8516 97.7939C69.8068 96.7361 71.8149 95.8899 73.823 94.8849C75.4083 94.0916 76.9936 93.2982 78.5261 92.5049C79.1074 92.1875 79.1074 92.0289 78.4733 91.7644C77.6806 91.4471 76.8351 91.1297 76.0424 90.9182C73.7173 90.2835 71.3922 89.7017 69.1199 89.067C67.3232 88.591 65.5265 88.0621 63.7298 87.5861C62.0388 87.163 60.2949 86.8456 58.5511 86.4754C55.2747 85.7349 52.0513 84.9945 48.7749 84.254C47.9294 84.0424 47.0311 83.9896 46.1327 83.778C45.6571 83.6722 45.2344 83.5136 44.7588 83.3549C42.2223 82.6144 39.7386 81.874 37.2021 81.0806C35.3525 80.4988 33.503 79.8641 31.6534 79.3881C30.3852 79.0708 29.0641 78.7005 27.8487 79.2823C25.7878 80.2344 23.7797 81.3451 21.7188 82.4029C20.0278 83.302 18.3368 84.254 16.6457 85.1532C14.4263 86.3167 12.154 87.4803 9.93456 88.6968C9.5118 88.9084 9.14189 89.2786 8.71914 89.5959C8.1907 90.019 7.76795 89.9662 7.45089 89.3844C7.08098 88.6439 6.81676 87.9035 6.49969 87.1101C6.34116 86.7399 6.23547 86.3696 5.97125 86.0523C5.60134 85.4705 5.60134 84.8887 5.75987 84.254C5.97125 83.4078 6.18262 82.5086 6.18262 81.6095C6.23547 79.8112 6.60538 78.1188 7.08097 76.4263C7.50372 75.0511 7.8208 73.6231 8.24355 72.248C8.50777 71.4017 8.24354 70.6613 7.87363 69.9208C6.71106 67.435 5.5485 64.8962 4.38593 62.4104C4.12171 61.8815 3.80464 61.3526 3.54042 60.8237C2.90629 59.4485 2.27217 58.0734 1.5852 56.6982C1.21529 55.9578 0.739694 55.2173 0.316942 54.4769C-0.000122353 53.948 0.211247 52.9959 0.739688 52.6257C2.32501 51.6208 3.96318 50.563 5.5485 49.611C7.76795 48.2887 9.9874 47.0193 12.2069 45.6971C14.5848 44.269 16.91 42.7881 19.3408 41.413C21.6131 40.0907 23.9382 38.8743 26.2634 37.6049C26.8975 37.2347 27.4788 36.7586 28.0601 36.3355C28.6413 35.9124 29.0641 36.0182 29.5397 36.5471C30.438 37.4991 30.7023 38.7685 31.2307 39.9321C31.8648 41.3072 32.4461 42.7352 33.0274 44.1633C33.8201 46.0673 34.6127 48.0243 35.4054 49.9283C35.6696 50.5101 35.9867 51.039 36.198 51.6208C36.7265 52.8373 37.2021 54.0537 37.6777 55.2702C37.7834 55.5347 37.9419 55.6933 38.0476 55.9578C38.2061 56.328 38.4175 56.7511 38.3647 57.1214C38.2061 59.0254 37.9947 60.9294 37.7834 62.8335C37.7305 63.4153 37.6248 63.9971 37.4663 64.526C36.885 66.5358 36.4094 68.5985 36.2509 70.7141C36.198 71.1373 35.9867 71.5604 35.9867 72.0364C35.9338 72.724 35.9338 73.4115 35.9867 74.0462C36.0924 74.9454 35.9867 75.3156 35.1412 75.58C33.7672 76.056 32.6046 76.7965 31.4421 77.6427C31.3364 77.7485 31.2307 77.8543 31.125 77.9601C31.2835 78.0659 31.3892 78.2245 31.5478 78.2774C33.8201 78.9121 36.0924 79.5468 38.3647 80.1815C39.7914 80.6046 41.2182 81.0277 42.6979 81.3979C44.2832 81.8211 45.8685 82.35 47.5067 82.7202C50.2017 83.3549 52.9496 83.9367 55.6975 84.5185C57.3885 84.8887 59.0795 85.1532 60.7177 85.5234C62.3558 85.8936 63.994 86.3696 65.5793 86.7927C67.4817 87.2688 69.3841 87.6919 71.2336 88.2208C73.2417 88.7497 75.2498 89.2786 77.2579 89.8604C77.6278 89.9662 77.9448 89.9662 78.3147 90.0191C78.2619 89.7017 78.209 89.3315 78.1033 89.067C77.7334 88.2737 77.3107 87.5332 76.8879 86.7927C76.7294 86.4754 76.5709 86.1052 76.4124 85.7878C74.827 82.826 73.2946 79.8641 71.7092 76.9023C70.5995 74.7867 69.4369 72.724 68.2744 70.6612C67.1646 68.7043 66.0021 66.7474 64.9452 64.7375C63.994 62.9393 63.0956 61.0352 62.2501 59.1841C60.8234 56.0636 59.3966 52.943 57.9698 49.8754C57.547 48.8705 57.1771 47.8656 56.7015 46.9136C55.856 45.2211 54.9577 43.6344 54.1122 41.9419C53.7951 41.3072 53.5309 40.6196 53.2667 39.8792C53.0553 39.2974 52.7382 39.2445 52.3155 39.5089C50.8887 40.4081 49.1977 40.7783 47.8766 41.889C47.7709 41.9419 47.3481 41.7832 47.1896 41.6245C46.1856 40.1965 45.2344 38.7685 44.2303 37.3404C43.3848 36.1769 42.4336 35.0662 41.641 33.8497C40.3199 31.8928 39.0516 29.9358 37.8362 27.926C37.2549 26.974 36.7793 25.9691 36.3037 24.9641C35.9338 24.2237 35.9867 23.9592 36.7793 23.5361C39.0516 22.3725 41.3239 21.2089 43.5962 19.9925C45.1287 19.1462 46.6083 18.2471 48.0879 17.348C48.9335 16.8719 49.8318 16.4488 50.6245 15.9199C52.1041 14.9679 53.5309 13.963 55.0105 12.9581C56.3845 12.0589 57.7584 11.1598 59.1852 10.2607C59.3437 10.1549 59.6608 10.1549 59.8193 10.2607C61.1404 11.2127 62.3558 10.8954 63.6769 10.2078C63.9412 10.0491 64.2582 9.99622 64.5224 9.99622C65.5265 10.1549 66.6891 9.67889 67.2175 8.77975C67.376 8.5153 67.4817 8.25085 67.6931 8.03929C67.8516 7.88061 68.1687 7.66906 68.3801 7.72195C69.067 7.88062 69.5955 7.61616 70.1239 7.24593C71.128 6.45258 71.9206 5.55345 72.1848 4.23119C72.1848 4.12541 72.2377 3.96675 72.3434 3.86097C72.5019 3.54362 72.7133 3.17339 73.1889 3.27917C73.6116 3.38495 73.8758 3.75518 73.823 4.1783C73.7701 4.81298 73.6645 5.44767 73.5588 6.08235C73.4531 7.35171 73.2946 8.62108 73.2417 9.83756C73.136 12.0589 73.136 14.2803 73.0303 16.5017C72.9246 17.9297 72.7133 19.3049 72.5019 20.7329C72.2905 22.4254 72.132 24.1179 71.9206 25.8104C71.8149 26.6037 71.6035 27.2913 70.8109 27.7673C69.3312 28.6665 67.9045 29.7243 66.372 30.6763C62.8843 32.7919 59.3966 34.9075 55.9089 37.0231C55.4861 37.2875 55.1162 37.6578 54.7463 37.9222C54.1122 38.4511 54.0593 38.6627 54.4292 39.4032C56.3845 42.841 58.0226 46.3847 59.6079 49.9812C61.299 53.7893 63.0428 57.5445 64.8395 61.2997C66.2663 64.2086 67.8516 67.0118 69.4369 69.8679C70.5467 71.8777 71.7092 73.8347 72.8189 75.8445C74.14 78.2245 75.4083 80.6046 76.7294 82.9846C77.1522 83.7251 77.5749 84.5185 77.9977 85.2589C78.5261 86.2639 78.9489 87.2688 79.4773 88.2208C79.5301 88.3266 79.6358 88.4323 79.6887 88.4852C79.7415 88.3794 79.7944 88.2737 79.7944 88.115C79.7944 87.1101 79.7415 86.0523 79.7415 85.0474C79.7415 83.9896 79.8472 82.8789 79.7944 81.8211C79.7415 78.489 79.6358 75.1569 79.583 71.8777C79.583 70.1852 79.6358 68.4399 79.6358 66.7474C79.6887 63.8384 79.7944 60.9295 79.9001 58.0734C80.0057 55.1115 80.1114 52.0968 80.2171 49.1349C80.3228 46.3318 80.3757 43.5286 80.4285 40.7254C80.4813 38.4511 80.4813 36.1769 80.5342 33.9555C80.587 31.7341 80.7456 29.5127 80.7984 27.3442C80.8512 25.8633 80.7984 24.3823 80.7984 22.9543C80.7984 22.7428 80.7984 22.4783 80.7984 22.2667C80.9041 21.4205 81.5382 20.9974 82.3309 21.156C82.7008 21.2089 83.0707 21.2618 83.4406 21.2089C87.4567 20.8387 91.4729 20.4685 95.4891 20.0454C95.7004 20.0454 95.8589 19.9396 96.0703 19.8338C95.9646 19.6751 95.9118 19.5165 95.8061 19.3578C94.8021 18.1942 93.0054 15.1795 96.3345 11.6887C96.7045 11.3185 97.3914 10.578 97.8142 10.2078L97.867 10.1549C98.4483 9.62599 99.0824 9.0442 99.8223 8.67397C103.521 6.61125 107.537 5.50056 111.606 4.54854C112.346 4.38987 113.033 4.12542 113.773 4.01964C116.468 3.49074 119.163 3.01472 121.858 2.53871C124.553 2.11559 127.248 1.74536 129.996 1.37513C131 1.26935 132.004 1.26934 133.008 1.16356C135.968 1.00489 138.874 0.793332 141.833 0.634662C143.577 0.528881 145.321 0.475989 147.065 0.475989C149.601 0.475989 152.138 0.423103 154.622 0.528883C157.475 0.687553 160.329 1.00489 163.182 1.26934C164.82 1.42801 166.459 1.58668 168.097 1.79824C170.845 2.16847 173.593 2.53871 176.288 2.96183C178.031 3.22628 179.775 3.54363 181.466 4.01964C182.365 4.2312 186.909 5.289 189.34 7.14015C191.242 8.56819 191.242 10.3665 191.348 11.3714C191.454 12.3763 191.295 13.7514 190.503 14.8092C189.868 15.6026 189.34 16.5017 188.812 17.348C188.759 17.4537 188.706 17.5595 188.653 17.6653C188.812 17.7182 188.917 17.7711 189.076 17.7711C191.824 17.6124 194.572 17.4537 197.32 17.2951C198.165 17.2422 199.011 17.2422 199.856 17.1893C200.437 17.1364 200.649 17.4537 200.807 17.9826C201.283 19.6222 201.23 24.6997 201.23 25.5459L201.336 31.5754Z" fill="#181715"/>
<path fill-rule="evenodd" clip-rule="evenodd" d="M153.406 67.0647C151.451 67.1176 149.496 67.1705 147.541 67.2234C145.691 67.2763 143.842 67.2234 141.992 67.2763C139.667 67.3821 137.395 67.5407 135.069 67.6465C133.907 67.6994 132.744 67.6465 131.582 67.6465C128.939 67.6994 126.244 67.8052 123.602 67.911C123.127 67.911 122.651 68.0696 122.228 68.1754C121.7 68.2812 121.33 68.0696 121.171 67.5936C120.907 66.5887 120.59 65.6367 120.432 64.6318C120.379 64.3673 120.643 63.8913 120.907 63.7855C121.33 63.6269 121.647 63.8913 121.806 64.3144C121.964 64.8433 122.175 65.4251 122.281 65.954C122.387 66.3771 122.493 66.5887 122.915 66.5358C123.074 66.5358 123.285 66.5887 123.444 66.5887C126.826 66.5358 130.261 66.4829 133.643 66.3771C136.919 66.3242 140.142 66.2185 143.419 66.1127C145.902 66.0598 148.333 65.954 150.817 65.8482C151.874 65.7953 152.878 65.7425 153.935 65.6896C154.305 65.6896 154.569 65.7425 154.463 65.1607C154.41 64.7376 154.569 64.2086 154.727 63.8384C154.833 63.6269 155.256 63.4153 155.467 63.4682C155.837 63.574 156.101 63.8913 155.996 64.3673C155.89 64.9491 155.837 65.5309 155.731 66.0598C155.626 66.6945 155.309 67.0647 154.675 67.0647C154.305 67.0647 153.829 67.0647 153.406 67.0647Z" fill="#181715"/>
<path fill-rule="evenodd" clip-rule="evenodd" d="M160.17 45.75C160.751 45.75 161.068 46.1202 161.068 46.702C161.068 47.2309 160.646 47.7069 160.17 47.7069C159.747 47.7069 159.219 47.1251 159.219 46.5962C159.219 46.1202 159.642 45.6971 160.17 45.75Z" fill="#181715"/>
<path fill-rule="evenodd" clip-rule="evenodd" d="M120.273 47.1251C120.748 47.1251 121.065 47.4425 121.065 47.8656C121.065 48.3945 120.431 48.9763 119.956 48.8176C119.638 48.7118 119.269 48.3416 119.163 48.0243C119.057 47.6011 119.638 47.1251 120.273 47.1251Z" fill="#181715"/>
<path fill-rule="evenodd" clip-rule="evenodd" d="M27.5312 72.5653C27.6898 73.0413 27.0028 73.6231 26.58 73.7817C24.8362 74.5222 23.0923 75.2098 21.3485 75.9502C20.0802 76.4791 18.812 77.1138 17.5966 77.6956C16.8039 78.1187 16.0112 78.5418 15.1657 78.965C14.9015 79.0707 14.6373 79.2294 14.3731 79.2294C14.1617 79.2294 13.7918 79.0707 13.6861 78.9121C13.5804 78.7005 13.6861 78.3303 13.8446 78.1716C14.0032 77.96 14.3202 77.8543 14.5845 77.6956C16.9624 76.532 19.3404 75.3684 21.7184 74.2048C22.7224 73.7288 25.5232 72.5124 25.8931 72.3537C26.263 72.195 26.6329 72.0892 27.0028 72.0892C27.2142 72.2479 27.3727 72.1421 27.5312 72.5653Z" fill="#181715"/>
<path fill-rule="evenodd" clip-rule="evenodd" d="M279.968 65.8482C279.862 65.478 279.756 65.1606 279.651 64.8962C279.334 64.1028 278.964 63.3095 278.752 62.4632C278.382 61.141 277.854 59.9245 277.167 58.708C276.216 57.1213 275.476 55.4289 274.736 53.7364C274.472 53.1017 274.366 52.3612 274.208 51.6736C274.102 51.1976 273.944 50.9861 273.415 51.3034C272.887 51.6208 272.305 51.8323 271.777 52.0968C270.826 52.5728 269.927 53.0488 268.976 53.5248C267.338 54.4239 265.7 55.3231 264.062 56.1693C262.054 57.2271 259.993 58.1791 258.037 59.2369C256.029 60.3476 254.074 61.5641 252.066 62.6748C251.643 62.9393 251.538 63.1508 251.643 63.6268C252.277 65.3722 252.859 67.1705 253.493 68.9158C254.286 70.9257 255.184 72.9355 255.977 74.9453C256.399 75.9502 256.822 76.1618 257.826 75.7387C258.672 75.3685 259.57 74.9453 260.415 74.5222C261.102 74.2049 261.789 73.8875 262.476 73.5173C264.167 72.7239 265.806 71.9306 267.497 71.1901C269.24 70.4497 270.984 69.9208 272.728 69.2332C273.996 68.7043 275.265 68.1225 276.48 67.5936C277.431 67.1705 278.382 66.7473 279.334 66.2713C279.651 66.2184 279.809 66.0069 279.968 65.8482ZM274.366 49.082C275 49.1878 275.317 49.4523 275.476 50.0869C275.687 51.039 275.846 51.991 276.11 52.943C276.691 55.1115 277.801 57.0684 279.017 58.9725C279.598 59.8187 279.915 60.8765 280.232 61.8286C280.708 63.0979 281.077 64.4202 281.447 65.7424C281.712 66.5358 281.606 66.906 280.866 67.2234C279.545 67.8052 278.118 68.3341 276.797 68.863C275.37 69.4448 273.891 70.0265 272.464 70.6083C271.777 70.8728 271.09 71.0843 270.403 71.3488C269.082 71.8777 267.814 72.4595 266.493 72.9355C264.59 73.676 262.952 74.8395 260.997 75.4213C259.781 75.7387 258.724 76.4791 257.615 77.0609C256.346 77.6956 256.241 77.6956 255.66 76.4262C254.55 74.0991 253.493 71.8248 252.436 69.4447C251.591 67.4878 250.851 65.478 250.111 63.4682C249.635 62.1988 249.9 61.8286 251.273 61.4583C251.749 61.2997 252.225 61.0352 252.7 60.7708C253.81 60.1361 254.867 59.4485 255.977 58.8138C256.558 58.4965 257.139 58.232 257.72 57.9676C258.777 57.4387 259.834 56.9098 260.891 56.328C262.899 55.2702 264.907 54.2124 266.862 53.1546C267.391 52.8901 267.866 52.5199 268.395 52.2025C269.452 51.6208 270.562 51.039 271.671 50.4572C272.253 50.1398 272.887 49.8225 273.468 49.5052C273.732 49.3994 274.049 49.2407 274.366 49.082Z" fill="#181715"/>
<path fill-rule="evenodd" clip-rule="evenodd" d="M281.183 59.7659C280.761 59.9246 280.444 59.6073 280.338 59.1841C280.021 58.0205 279.704 56.857 279.44 55.6934C279.334 55.2703 279.44 54.7943 280.021 54.6356C280.444 54.5298 280.972 54.9529 281.078 55.376C281.289 56.381 281.448 57.4388 281.659 58.4437C281.712 58.6023 281.712 58.761 281.712 58.9197C281.765 58.9726 281.448 59.6601 281.183 59.7659Z" fill="#181715"/>
<path fill-rule="evenodd" clip-rule="evenodd" d="M26.475 42.2593C26.2636 42.3651 26.1579 42.418 25.9994 42.5237C25.5766 42.7882 25.1539 43.1055 24.6783 43.37C24.3612 43.5287 23.9913 43.6344 23.6742 43.846C21.9832 44.798 20.3451 45.75 18.7069 46.6492C17.3858 47.3896 16.0119 48.0772 14.6908 48.8177C13.8453 49.2937 12.9998 49.8226 12.1542 50.2986C10.2519 51.3564 8.40232 52.4142 6.49994 53.4191C5.91865 53.7365 5.86581 54.1067 6.13003 54.6356C7.13407 56.5396 8.08525 58.4437 9.08929 60.3477C9.72342 61.5642 10.4632 62.7278 11.0445 63.9443C11.3087 64.4732 11.6258 64.5261 12.0486 64.3145C12.4713 64.1029 12.7884 63.8385 13.2111 63.6269C15.1664 62.7278 17.2273 61.8287 19.1297 60.8766C20.5036 60.1891 21.8247 59.3428 23.1458 58.5495C24.6254 57.7032 26.0522 56.8041 27.5847 55.9578C28.7473 55.2703 29.9627 54.6885 31.0724 54.0538C32.4464 53.3133 32.4464 53.2076 31.548 51.8853C30.0684 49.5581 28.8001 47.0723 27.7432 44.5336C27.479 43.9518 27.162 43.37 26.8449 42.7882C26.792 42.5237 26.5807 42.418 26.475 42.2593ZM10.9917 66.3772C10.7803 66.1656 10.5161 65.9541 10.4104 65.6896C9.40635 63.1509 7.97957 60.9295 6.65847 58.5495C5.9715 57.333 5.39021 56.0107 4.75608 54.7414C4.65039 54.5298 4.5447 54.3182 4.43901 54.1067C3.96342 53.4191 4.17479 52.7315 4.96745 52.4142C5.8658 52.044 6.76415 51.6737 7.60965 51.1977C9.24782 50.2986 10.886 49.3466 12.5242 48.5003C14.1095 47.6541 15.6948 46.8607 17.2273 46.0145C19.5524 44.6922 25.2067 41.2015 25.8937 41.2544C25.9994 41.2544 27.2148 40.7784 27.6375 41.5188C28.0603 42.3122 28.3245 43.1584 28.6944 43.9518C29.2229 45.0096 29.7513 46.1203 30.3854 47.1781C31.1781 48.6061 32.0764 49.9284 32.8691 51.3564C33.1862 51.9382 33.4504 52.5729 33.7146 53.2076C33.926 53.7893 33.4504 54.0538 33.0805 54.2654C31.7065 54.9529 30.3326 55.6405 29.0115 56.3281C28.3774 56.6454 27.7432 57.0685 27.1091 57.4388C25.5766 58.285 24.0442 59.0784 22.5645 59.9246C21.2963 60.6651 20.028 61.4584 18.7598 62.146C17.333 62.8865 15.8005 63.5211 14.3737 64.3145C13.4225 64.8434 12.577 65.4781 11.7315 66.0599C11.5201 66.1656 11.3087 66.2185 10.9917 66.3772Z" fill="#181715"/>
<path fill-rule="evenodd" clip-rule="evenodd" d="M29.4866 109.377C29.3281 109.588 29.1695 109.853 29.011 109.906C28.8525 109.959 28.4826 109.853 28.4297 109.694C27.9541 108.901 27.5314 108.055 27.1086 107.155C27.0558 106.997 27.1086 106.732 27.2143 106.627C27.32 106.521 27.6371 106.468 27.7956 106.521C27.9541 106.574 28.1655 106.785 28.2712 106.944C28.6939 107.737 29.0639 108.531 29.4866 109.377Z" fill="#181715"/>
<path fill-rule="evenodd" clip-rule="evenodd" d="M27.3203 110.223C27.2146 110.17 27.0561 110.064 26.9504 109.906C26.6333 109.43 26.2634 108.954 25.9992 108.478C25.8935 108.266 25.8935 107.79 25.9992 107.631C26.2634 107.314 26.6333 107.473 26.8447 107.79C27.2146 108.319 27.5845 108.848 27.8487 109.377C28.0601 109.8 27.8487 110.223 27.3203 110.223Z" fill="#181715"/>
</g>
<defs>
<clipPath id="clip0_120_943">
<rect width="288" height="183" fill="white"/>
</clipPath>
</defs>
</svg>
