<svg width="236" height="182" viewBox="0 0 236 182" fill="none" xmlns="http://www.w3.org/2000/svg">
<g clip-path="url(#clip0_120_958)">
<path d="M226.691 13.5912C225.892 9.6878 170.042 2.86867 166.046 2.44542C162.05 2.06919 161.674 11.2868 161.674 11.2868L160.969 87.9431V88.8837L214.703 103.651L221.379 21.1157C221.379 21.1157 227.491 17.4475 226.691 13.5912ZM200.271 57.1395H193.877C193.877 57.1395 194.3 72.1415 193.266 72.1415C192.279 72.1415 184.24 71.4831 184.24 71.4831V56.1519L178.363 53.048C178.598 51.8253 178.363 38.187 178.363 38.187L202.292 39.88L200.271 57.1395Z" fill="#FFD89F"/>
<path fill-rule="evenodd" clip-rule="evenodd" d="M225.705 16.6481C225.469 16.0837 225.328 15.4253 224.999 14.908C224.811 14.5318 224.435 14.4377 224.2 14.9551C223.73 15.8486 223.589 16.8362 223.777 17.8238C223.824 18.153 224.153 18.5292 224.482 18.7173C224.623 18.8114 225.14 18.4352 225.281 18.153C225.517 17.6827 225.564 17.1654 225.705 16.6481ZM222.602 76.7974C222.555 77.4558 222.461 78.1142 222.461 78.7726C222.461 78.9607 222.649 79.1489 222.743 79.337L223.307 79.0548C224.106 78.3023 224.905 77.5499 225.752 76.8445C227.162 75.6687 228.525 74.446 230.265 73.7876C230.406 73.7406 230.453 73.5525 230.594 73.4114C230.406 73.3644 230.265 73.3173 230.077 73.3173C229.56 73.3173 229.042 73.3643 228.525 73.3173C226.833 73.0351 225.14 72.706 223.495 72.3297C222.884 72.1886 222.602 72.3297 222.649 72.9881C222.649 74.2579 222.602 75.5277 222.602 76.7974ZM226.363 46.229C225.987 44.4889 225.517 42.7488 225.14 41.0088C224.952 40.0212 224.905 38.9866 224.764 37.952C224.717 37.7638 224.623 37.5757 224.576 37.3876C224.529 37.6227 224.435 37.8109 224.388 38.046C224.341 38.1401 224.388 38.2812 224.388 38.3752C224.247 41.1029 224.106 43.8305 223.918 46.5582C223.824 48.1101 223.589 49.7091 223.495 51.261C223.448 52.1545 223.495 53.001 223.448 53.8946C223.26 56.9044 223.025 59.9613 222.837 62.9711C222.696 64.8522 222.602 66.6863 222.414 68.5675C222.226 70.2605 222.555 70.8248 224.2 71.107C226.222 71.4832 230.312 71.8124 230.312 71.7654H232.756C233.226 71.7654 233.415 71.6243 233.226 71.06C232.286 68.3793 231.346 65.6517 230.5 62.924C230.03 61.4662 229.983 59.8672 229.324 58.5504L226.363 46.229ZM219.311 107.037C218.465 106.66 217.618 106.284 216.725 106.143C214.657 105.767 206.242 103.745 205.16 103.416C202.105 102.475 199.002 101.534 195.946 100.594C193.595 99.8414 191.339 99.0419 188.988 98.2894C187.672 97.8662 186.309 97.537 184.992 97.0667C183.112 96.4083 181.231 95.7029 179.304 95.0445C178.834 94.8563 178.317 94.7153 177.846 94.6212C174.273 93.7747 170.654 92.9752 167.081 92.1287C166.093 91.8935 165.153 91.5173 164.166 91.1881C163.226 90.8589 162.332 90.5297 161.392 90.2476C161.016 90.1535 160.687 90.0594 160.311 89.9654C160.264 90.2946 160.123 90.6708 160.123 91C160.17 91.4703 160.217 91.9876 160.405 92.3638C160.546 92.646 160.922 92.7871 161.251 92.9282C162.615 93.3514 163.978 93.7277 165.341 94.1979C166.846 94.6682 168.303 95.2326 169.807 95.6558C171.218 96.0791 172.675 96.3142 174.038 96.7375C176.295 97.4899 178.505 98.3835 180.761 99.1359C182.83 99.8413 184.898 100.359 186.967 100.97C190.446 102.005 193.971 103.039 197.45 104.121C200.036 104.92 202.622 105.767 205.207 106.519C206.712 106.943 208.263 107.131 209.815 107.554C212.729 108.306 215.644 109.059 218.606 109.435C219.123 109.482 219.358 109.388 219.499 108.918C219.593 108.589 219.546 107.131 219.311 107.037ZM216.443 104.074C216.396 104.591 216.584 104.92 217.148 104.967C217.854 105.062 218.606 105.203 219.311 105.25C219.875 105.297 219.969 104.92 219.969 104.45C219.969 101.675 219.969 98.9008 220.063 96.1261C220.204 92.693 220.486 89.26 220.674 85.8269C220.815 83.4284 220.956 80.983 221.097 78.5845C221.191 76.7504 221.238 74.9163 221.238 73.0822C221.238 71.6713 221.05 70.3075 221.144 68.8967C221.379 64.476 221.709 60.0553 221.991 55.6346C222.273 51.4961 222.508 47.3576 222.743 43.2191C222.884 40.6796 222.978 38.1401 223.119 35.6005C223.166 34.6129 223.26 33.5783 223.26 32.5907C223.26 30.7566 223.166 28.9225 223.072 27.0884C223.072 26.9943 222.978 26.9003 222.931 26.8062C222.837 26.9003 222.743 26.9943 222.696 27.1354C222.649 27.3235 222.696 27.5116 222.696 27.6998C222.743 30.8036 221.285 42.1845 221.191 44.8651C221.05 48.6274 220.016 52.3426 219.969 56.1519C219.969 56.246 219.922 56.3871 219.922 56.4812C219.781 57.5158 219.64 58.5034 219.546 59.538C219.217 62.924 218.935 66.3101 218.559 69.6961C218.277 72.3297 217.901 74.9163 217.524 77.5499C217.336 78.9137 217.101 80.2305 217.007 81.5943C216.913 82.629 216.913 83.6636 216.866 84.6982C216.725 88.2253 216.584 91.7054 216.49 95.2326C216.396 97.537 216.49 103.416 216.443 104.074ZM167.504 2.16332C165.106 2.21035 162.85 4.2796 162.521 6.48994C162.332 7.94782 162.332 7.94782 163.649 8.32404C165.858 8.98244 168.021 9.64084 170.277 10.2522C174.321 11.3339 178.364 12.4155 182.501 12.9328C185.462 13.3091 188.471 13.5912 191.433 14.0615C194.254 14.4848 197.027 15.1432 199.848 15.6605C202.293 16.1308 204.737 16.507 207.229 16.9302C210.05 17.4005 212.87 17.8238 215.691 18.247C217.618 18.5292 219.593 18.8114 221.521 19.1876C222.132 19.2817 222.085 19.0936 222.038 18.6233C221.85 17.2124 221.85 15.8016 222.414 14.4848C222.884 13.262 222.931 13.215 221.709 12.8388C219.64 12.2274 217.524 11.7101 215.456 11.1928C213.764 10.7695 212.024 10.3933 210.332 10.0171C209.015 9.7349 207.605 9.78193 206.336 9.31164C203.139 8.18296 199.754 8.13593 196.463 7.61862C194.536 7.28942 192.561 6.96022 190.634 6.63102C186.967 6.01965 183.253 5.36125 179.586 4.74988C178.034 4.51474 176.436 4.46771 174.932 4.09149C172.675 3.57417 170.419 2.82172 168.162 2.16332C167.833 2.21035 167.551 2.16332 167.504 2.16332ZM161.815 81.124C162.003 83.2873 162.144 85.4507 162.332 87.614C162.379 88.1783 162.379 88.8367 163.179 89.0718C165.435 89.7302 167.598 90.5768 169.854 91.2352C171.829 91.7995 173.803 92.4109 175.825 92.7401C178.505 93.1633 180.996 94.0569 183.535 94.8563C184.522 95.1855 185.556 95.5147 186.544 95.8439C187.484 96.1261 188.471 96.3142 189.364 96.6434C191.856 97.4899 194.301 98.3835 196.792 99.23C199.049 99.9824 201.305 100.735 203.562 101.44C204.878 101.864 206.195 102.287 207.511 102.663C208.874 102.992 210.238 103.227 211.601 103.51C212.4 103.698 213.152 103.933 213.952 104.168C214.422 104.309 214.657 104.168 214.704 103.698C214.751 101.346 214.798 98.9948 214.845 96.6434C214.845 95.938 214.798 95.1855 214.798 94.4801C214.845 92.3168 214.939 90.1535 215.033 87.9902C215.127 86.2031 215.174 84.416 215.315 82.676C215.409 81.4062 215.738 80.1365 215.926 78.8667C216.537 74.399 217.101 69.8842 217.666 65.3695C217.807 64.2879 218.465 56.293 218.935 53.4243C219.123 52.3897 220.956 28.7814 221.05 27.9349C221.285 26.0067 221.568 24.1256 221.991 22.1974C222.132 21.539 221.944 21.3039 221.426 21.1628C220.533 20.9747 219.64 20.7395 218.747 20.5985C215.503 20.0812 212.259 19.6109 208.968 19.0936C207.793 18.9054 206.618 18.5292 205.395 18.3881C203.28 18.106 201.023 18.153 199.002 17.5886C195.147 16.507 191.198 15.9426 187.249 15.2843C184.052 14.7199 180.855 14.2026 177.658 13.7793C175.026 13.4501 172.487 12.8858 169.948 12.1804C167.786 11.616 165.623 11.0987 163.461 10.5344C162.709 10.3463 161.721 10.8166 161.721 11.3809C161.815 13.7323 162.003 16.0837 162.003 18.4352C162.003 20.8336 161.768 23.2321 161.721 25.6775C161.627 28.7814 161.58 31.8853 161.533 34.9892C161.486 37.7638 161.392 40.5385 161.298 43.3132C161.251 44.8651 161.063 46.4641 161.063 48.016C161.063 50.9318 161.157 53.8946 161.204 56.8103C161.251 60.0083 161.298 63.2062 161.392 66.3571C161.486 68.8967 161.674 71.4832 161.721 74.0227C161.674 76.3742 161.768 81.124 161.815 81.124ZM168.256 143.202C168.35 138.687 168.397 134.172 168.585 129.704C168.726 126.459 169.196 116.583 169.149 114.937C169.102 111.975 168.961 109.012 168.961 106.049C168.961 103.98 169.102 101.958 169.102 99.8884C169.102 99.1359 168.961 98.3835 168.82 97.631C168.773 97.4899 168.538 97.3018 168.35 97.2548C165.529 96.4083 162.662 95.5147 159.841 94.7153C158.666 94.3861 158.383 94.0569 158.383 92.8341C158.383 91.7525 158.336 90.6708 158.336 89.5892C158.336 89.354 158.336 89.0718 158.336 88.8367C158.383 88.1783 158.666 87.8021 159.371 87.9432C159.888 88.0372 160.452 87.9902 161.016 88.0372C161.016 87.5199 161.016 87.0026 160.969 86.4382C160.922 85.7328 160.781 85.0744 160.734 84.369C160.64 82.723 160.593 81.077 160.499 79.431C160.358 76.045 160.264 72.6119 160.123 69.1788C160.076 67.1096 159.982 64.9933 159.982 62.924C159.935 57.2336 159.841 51.5432 159.888 45.8527C159.888 43.4543 160.17 41.1029 160.217 38.7044C160.264 35.8357 160.217 32.9199 160.217 30.0512C160.217 28.4522 160.358 26.8532 160.358 25.2543C160.405 22.7618 160.311 20.2693 160.358 17.7768C160.452 14.9551 159.794 12.1804 160.452 9.35867C160.593 8.65324 160.405 7.90079 160.546 7.19536C160.875 4.938 161.956 3.19795 163.931 1.83412C165.388 0.846527 166.705 0.188129 168.444 0.423271C168.585 0.423271 168.773 0.42327 168.867 0.470299C170.324 1.59898 172.205 1.64601 173.897 2.06927C176.107 2.63361 178.364 2.82172 180.62 3.24498C182.36 3.52715 184.146 3.90337 185.885 4.18554C187.625 4.46772 189.364 4.74988 191.104 5.03205C194.066 5.50234 197.027 5.97263 199.989 6.48994C203.186 7.05428 206.383 7.85376 209.579 8.27702C212.118 8.60622 214.516 9.45273 217.007 10.0171C219.123 10.4874 221.191 11.0987 223.26 11.616C223.354 11.6631 223.495 11.6631 223.589 11.6631C225.516 10.9576 226.034 12.4625 226.692 13.6383C227.726 15.5194 227.773 17.5416 227.021 19.5168C226.692 20.4104 226.269 21.3509 225.046 21.492C224.388 21.539 224.388 22.1504 224.388 22.5737C224.435 24.6429 224.529 26.7122 224.858 28.7814C225.187 31.0388 225.234 33.2961 225.517 35.5535C225.705 37.0584 226.034 38.5633 226.316 40.0682C226.692 41.9494 227.068 43.7835 227.491 45.6646C228.008 48.016 228.478 50.3675 229.136 52.7189C230.171 56.4812 231.205 60.1964 232.38 63.9116C233.179 66.4041 234.214 68.8496 235.154 71.2951C235.201 71.4832 235.295 71.6243 235.389 71.8124C236.047 73.6465 235.953 73.7406 234.026 73.7406C233.697 73.7406 233.32 73.8817 232.991 74.0227C230.218 75.1985 227.679 76.7034 225.517 78.9137C224.623 79.8543 223.448 80.5597 222.837 81.7354C222.649 82.1116 222.461 82.5349 222.461 82.9581C222.273 85.8269 222.179 88.6956 221.991 91.5173C221.897 93.3985 221.662 95.3266 221.568 97.2078C221.473 98.9008 221.568 100.594 221.521 102.24C221.473 104.92 221.379 107.648 221.285 110.329C221.238 111.834 221.003 111.975 219.546 111.645C216.725 110.94 213.858 110.188 211.037 109.482C210.802 109.435 210.567 109.435 210.285 109.435C210.426 109.67 210.52 109.952 210.661 110.141C212.588 112.68 214.469 115.267 216.396 117.759C218.653 120.675 220.956 123.497 223.213 126.365C224.482 128.011 225.658 129.704 226.927 131.35C227.773 132.479 228.619 133.561 229.56 134.595C231.393 136.712 233.226 138.781 235.107 140.85C235.53 141.32 235.624 141.697 235.342 142.214C235.06 142.684 234.731 142.825 234.308 142.402C232.568 140.615 230.735 138.875 229.136 136.994C227.021 134.501 225.046 131.821 223.025 129.234C220.768 126.318 218.559 123.356 216.302 120.393C213.952 117.289 211.507 114.232 209.156 111.175C209.015 110.987 208.874 110.799 208.733 110.658C208.592 110.517 208.357 110.47 208.169 110.376C208.122 110.564 208.028 110.799 208.075 110.987C208.122 112.539 208.216 114.044 208.263 115.596C208.357 117.947 208.404 120.346 208.498 122.697C208.639 125.331 208.827 127.964 208.968 130.598C209.156 133.843 209.815 146.352 209.956 149.362C210.003 149.974 210.144 153.03 210.285 153.924C210.379 154.535 210.238 154.959 209.626 155.1C208.874 155.288 208.874 154.724 208.827 154.253C208.686 151.29 208.545 148.328 208.357 145.365C208.216 143.06 208.075 140.756 207.981 138.452C207.887 135.865 207.276 127.494 207.182 125.848C207.088 123.967 206.665 114.279 206.477 111.363C206.43 110.658 206.383 109.905 206.289 109.2C206.242 108.589 205.96 108.259 205.301 108.118C201.775 107.178 198.25 106.143 194.724 105.156C194.019 104.967 193.36 104.591 192.655 104.403C190.916 103.933 189.176 103.51 187.484 103.039C185.697 102.522 183.864 102.005 182.124 101.393C179.962 100.688 177.846 99.8413 175.684 99.1359C174.368 98.7127 172.957 98.5246 171.641 98.1954C171.077 98.0543 170.889 98.2424 170.842 98.7597C170.701 100.641 170.466 102.475 170.466 104.356C170.418 107.131 170.654 109.905 170.607 112.68C170.513 117.101 170.23 121.521 170.042 125.989C169.948 128.717 169.478 141.038 169.384 144.471C169.337 145.694 169.384 146.917 169.384 148.093C169.384 148.469 169.572 149.08 168.867 149.08C168.256 149.08 168.256 148.563 168.256 148.093C168.256 146.494 168.256 144.848 168.256 143.202Z" fill="#181715"/>
<path fill-rule="evenodd" clip-rule="evenodd" d="M131.163 32.8728C131.681 32.7318 132.245 32.6377 132.762 32.4966C133.561 32.2615 133.702 31.8852 133.326 31.1328C133.044 30.5684 132.715 30.0511 132.433 29.4868C132.245 29.1576 132.01 29.0165 131.822 29.4398C131.399 30.3333 131.069 31.2739 130.646 32.1674C130.364 32.7318 130.646 32.8728 131.163 32.8728ZM130.223 36.9173C130.834 40.2093 131.446 43.5013 132.057 46.7933C132.339 48.1571 132.668 49.5209 132.95 50.8847C133.044 51.308 133.138 51.7312 133.232 52.1545C133.561 51.9193 133.89 51.7312 134.219 51.4961C134.736 51.0728 135.113 51.308 135.254 51.4961C135.442 51.6842 135.63 51.8723 135.301 52.4837C134.971 53.048 134.877 53.1891 134.83 53.3302C135.018 53.3302 135.207 53.3772 135.348 53.3302C136.147 53.0951 136.241 52.4837 136.1 51.7312C135.912 50.6966 135.63 49.662 135.583 48.6274C135.442 47.0754 135.536 45.4765 135.348 43.9245C135.065 41.479 134.689 39.0806 134.36 36.6821C134.266 35.7886 134.172 34.9421 134.125 34.0485C134.078 33.4842 133.89 33.2491 133.279 33.4372C132.433 33.7194 131.634 33.9545 130.787 34.1896C130.223 34.3307 129.988 34.6129 130.176 35.2243C130.317 35.7886 130.317 36.9173 130.223 36.9173ZM21.8137 71.6713C22.989 71.4832 23.8822 71.4361 24.7284 71.201C26.3268 70.8248 27.9252 70.3545 29.4766 69.8842C30.4639 69.602 31.4511 69.2258 32.4384 68.8496C32.6264 68.8026 32.7675 68.7085 32.9555 68.6615C34.2719 68.3323 35.5882 68.0031 36.8575 67.6268C38.2209 67.2036 39.5842 66.6392 40.9476 66.216C42.0758 65.8398 43.1571 65.5106 44.2854 65.2754C46.8711 64.7111 49.5507 64.3819 52.0894 63.5824C53.5468 63.1591 54.9571 62.8299 56.4145 62.5478C57.8719 62.2656 59.3292 61.7013 60.7866 61.5131C64.6886 60.9958 77.8049 58.3622 80.2496 57.7979C82.8822 57.2336 85.5149 56.7633 88.1476 56.293C90.2161 55.9168 92.3316 55.5405 94.4001 55.1173C94.5412 55.0703 94.6822 54.9762 94.8233 54.8821C94.7762 54.7881 94.7292 54.647 94.6352 54.6C93.3659 54.0827 92.5667 52.2956 90.7802 53.2361C90.6862 53.2832 90.4982 53.1891 90.3571 53.2361C89.5109 53.3772 88.7117 53.4243 87.8655 53.6124C85.7499 54.0827 83.6344 54.694 81.4719 55.1173C79.3093 55.5405 77.1468 55.8227 75.0312 56.293C72.3986 56.8573 69.6719 56.8573 67.0862 57.7979C66.4751 58.033 65.8169 58.1271 65.1587 58.2682C62.7611 58.8325 60.3165 59.3498 57.9189 59.9612C56.5555 60.2904 55.1922 60.7607 53.8288 61.1369C51.3372 61.7953 48.8926 62.3597 46.4009 63.0181C45.1786 63.3473 44.0033 63.7235 42.781 64.0057C41.1356 64.3819 39.4902 64.6641 37.8448 65.1343C34.2719 66.0749 30.6989 67.0625 27.126 68.0501C26.1388 68.3323 25.1515 68.6144 24.2113 68.9436C23.3651 69.2258 22.6129 69.6491 21.7667 69.8842C20.6854 70.1664 19.5101 70.3075 18.4288 70.4956C18.2878 70.4956 18.1938 70.6367 18.0997 70.7307C18.1468 70.7777 18.1938 70.8248 18.2408 70.8248C19.5571 71.107 20.7794 71.4361 21.8137 71.6713ZM20.7794 127.4C21.1555 131.633 21.4376 135.865 21.8137 140.098C21.9077 141.038 22.0958 142.12 22.5659 142.872C22.942 143.437 23.8822 143.672 24.5874 144.001C25.0575 144.236 25.5276 144.33 25.9978 144.518C25.9507 144.001 25.9037 143.437 25.9037 142.919C25.7157 139.298 25.4806 135.677 25.2926 132.103C25.0575 128.246 24.3053 124.484 24.3993 120.628C24.3993 119.828 24.2583 119.029 24.3053 118.229C24.3993 116.866 23.4121 110.141 23.3651 108.071C23.2711 104.638 23.224 101.158 23.13 97.725C23.083 95.3736 23.036 93.0222 22.848 90.6708C22.7069 88.5545 22.4719 86.4382 22.1898 84.3219C22.0017 82.9111 21.5786 81.5002 21.3436 80.0894C21.0615 78.4904 20.9675 76.8444 20.6384 75.2454C20.4974 74.493 20.1213 73.6465 19.5571 73.1762C18.899 72.6119 17.9117 72.4708 17.0655 72.0945C16.6424 71.9064 16.5484 72.0945 16.5954 72.5178C16.7834 74.54 17.5356 89.7772 17.6766 92.8341C17.8177 95.6558 18.0997 98.4305 18.2878 101.252C18.3818 102.428 18.4288 103.651 18.5229 104.826C18.5229 105.014 18.6639 105.25 18.7579 105.438C18.946 105.297 19.134 105.203 19.228 105.061C19.5101 104.544 19.7922 103.98 20.0272 103.415C20.2623 102.71 20.4033 101.911 20.6384 101.158C20.7794 100.641 21.1085 100.218 21.7667 100.312C22.3778 100.406 22.8009 100.735 22.7069 101.44C22.6599 101.864 22.4719 102.334 22.2368 102.71C21.7667 103.51 21.2025 104.215 20.7324 104.967C20.3093 105.673 20.0272 106.519 19.5101 107.178C19.04 107.789 18.946 108.4 19.04 109.106C19.181 110.282 19.3221 111.41 19.4161 112.586C19.5101 113.668 19.5571 114.702 19.6511 115.784C19.8862 117.9 20.6384 125.707 20.7794 127.4ZM27.9723 145.224C28.0663 145.788 28.2073 145.976 28.8185 145.835C29.2886 145.694 29.8057 145.694 30.3229 145.647C33.0025 145.412 35.7292 145.271 38.4089 144.989C40.2894 144.8 42.1699 144.518 44.0974 144.283C45.8838 144.095 47.6703 144.001 49.4567 143.766C51.5723 143.484 53.6878 143.013 55.8503 142.684C60.1284 142.073 64.3595 141.414 68.5906 140.38C71.8344 139.58 75.0782 138.922 78.3691 138.311C81.989 137.652 85.6089 136.994 89.2758 136.523C92.0966 136.147 94.9643 136.1 97.832 135.818C100.136 135.583 102.392 135.16 104.649 134.736C105.73 134.548 106.2 133.843 105.918 132.855C105.354 130.786 105.354 128.67 105.213 126.553C105.025 123.779 104.508 121.004 104.226 118.276C103.897 114.843 103.614 111.41 103.379 107.977C103.097 103.98 102.909 100.029 102.486 96.032C102.157 92.5519 101.546 89.1659 101.17 85.6858C100.841 82.5349 100.7 79.384 100.465 76.233C100.324 74.7281 100.183 73.2232 99.9946 71.7654C99.7125 69.6491 99.2894 67.5798 99.0543 65.4635C98.7723 62.7829 98.1141 60.1493 97.3149 57.5628C97.2209 57.2336 96.6567 56.8103 96.3746 56.8573C94.0711 57.1395 91.7205 57.4687 89.4169 57.8449C87.4894 58.1741 85.6089 58.5974 83.7284 58.9736C80.8137 59.538 77.8989 60.0082 74.9842 60.5726C73.3858 60.8548 71.7404 61.231 70.142 61.5131C68.0264 61.8894 65.8639 62.1716 63.7484 62.5948C61.3978 63.0651 59.0472 63.5824 56.6495 64.1467C53.5938 64.8522 50.538 65.5576 47.4822 66.263C47.3412 66.31 47.2001 66.3101 47.0591 66.3571C45.2727 66.7803 43.4862 67.1095 41.6998 67.6268C39.4902 68.2852 37.2806 69.0377 35.0711 69.7901C33.0966 70.4485 31.028 70.7307 29.1005 71.5772C27.4551 72.2827 25.6687 72.6589 23.9762 73.1292C23.13 73.3643 22.6599 73.8816 22.6599 74.7752C22.7069 75.9509 22.7069 77.1736 22.895 78.3493C23.2711 81.3121 23.7412 84.2749 24.1173 87.2847C24.3993 89.6832 24.5874 92.0816 24.7754 94.4801C24.9165 96.6434 24.9165 98.8067 25.0105 100.97C25.1045 102.475 25.3396 103.98 25.3866 105.438C25.4806 107.789 25.3396 110.141 25.4806 112.445C25.6217 115.878 25.9037 119.311 26.0918 122.744C26.1388 123.732 26.0448 124.719 26.1388 125.707C26.3268 128.764 27.6902 143.531 27.9723 145.224ZM135.536 54.7881C135.207 54.7411 134.642 54.694 134.078 54.694C133.89 54.694 133.655 54.7881 133.514 54.8821C132.809 55.7757 132.057 56.6692 131.399 57.6568C130.411 59.1147 129.518 60.5726 128.578 62.0305C127.215 64.0997 125.804 66.169 124.441 68.2382C123.642 69.461 122.842 70.7778 122.043 72.0005C121.714 72.5178 121.244 72.9881 120.915 73.5054C119.505 75.7157 118.047 77.9261 116.637 80.1364C116.214 80.7478 115.932 81.4532 115.509 82.1116C114.662 83.3343 113.769 84.5571 112.876 85.7798C111.748 87.4258 110.619 89.1188 109.444 90.7648C108.645 91.9405 107.799 93.0692 106.952 94.1979C106.106 95.3266 105.119 96.4082 104.414 97.584C104.085 98.1013 104.132 98.9008 104.179 99.5592C104.32 101.911 104.602 104.262 104.79 106.66C105.025 109.67 105.213 112.633 105.495 115.643C105.777 118.747 106.2 121.804 106.576 124.907C106.811 127.071 106.858 129.281 107.328 131.397C107.611 132.667 107.328 133.843 107.328 135.066C107.328 135.348 106.764 135.865 106.388 135.912C104.696 136.288 102.956 136.618 101.217 136.806C97.1268 137.276 93.0838 137.699 88.9938 138.169C86.7372 138.452 84.5276 138.875 82.2711 139.251C81.0958 139.439 79.9675 139.533 78.7922 139.674C78.275 139.721 78.04 139.957 78.04 140.521C78.087 142.167 78.04 143.813 78.134 145.459C78.228 147.058 78.3691 148.657 78.5101 150.256C78.7452 153.36 78.9802 156.511 79.2153 159.661C79.4033 162.342 79.3563 164.646 79.5444 166.575C80.0615 169.443 81.848 172.218 82.5061 173.253C83.4934 174.758 84.6217 176.215 85.6559 177.673C85.844 177.956 86.032 178.332 86.079 178.661C86.126 178.896 85.938 179.178 85.844 179.413C85.6089 179.319 85.2328 179.319 85.0918 179.131C84.1515 178.05 83.2583 176.921 82.4121 175.792C81.2838 174.287 80.1555 172.735 79.0272 171.23C78.8862 171.042 78.7452 170.854 78.7452 170.666C78.4631 168.738 78.134 166.763 77.899 164.835C77.8049 164.223 77.2408 154.347 77.1468 152.325C76.9587 149.644 76.4416 142.308 76.3005 141.132C76.2065 140.051 76.1595 140.098 75.1723 140.333C71.8344 141.085 68.5436 141.791 65.2057 142.543C63.7013 142.872 62.244 143.249 60.6926 143.531C59.3762 143.766 58.0129 143.86 56.6495 144.095C55.4272 144.283 54.2049 144.518 52.9826 144.706C52.4655 144.8 52.3715 144.942 52.5125 145.506C52.8416 146.494 53.0296 147.575 53.2647 148.61C53.6408 150.35 54.0169 152.09 54.346 153.83C54.534 154.865 54.581 155.993 54.675 157.028C54.9101 159.05 55.1452 161.072 55.4272 163.095C55.6623 165.07 55.9444 167.092 56.2264 169.067C56.3675 169.914 56.6496 170.713 56.9316 171.466C57.2137 172.265 57.3077 172.923 56.7906 173.723C56.3205 174.428 56.1794 175.369 55.8974 176.215C55.3332 177.956 54.393 180.542 54.1579 181.436C53.9229 182.282 52.7005 181.906 52.9356 180.965C53.1707 180.025 53.6408 179.131 53.9229 178.191C54.44 176.262 55.0511 174.334 55.3802 172.359C55.5213 171.372 55.0511 170.29 54.9571 169.255C54.581 166.245 54.2049 163.236 53.7818 160.226C53.4057 157.639 53.0766 155.053 52.6065 152.513C52.2304 150.538 51.6663 148.61 51.1021 146.682C50.632 145.083 50.397 145.036 48.7515 145.271C46.2129 145.694 43.6742 145.929 41.1356 146.258C38.3619 146.588 35.5882 146.964 32.8145 147.246C31.4982 147.387 30.1348 147.434 28.7715 147.528C28.4424 147.528 28.0663 147.622 27.7372 147.575C27.2671 147.528 26.7029 147.481 26.4209 147.199C25.5746 146.164 21.5786 144.612 20.7324 144.283C20.4503 144.189 20.1683 143.86 20.1213 143.578C19.9802 142.919 19.9802 142.214 19.9802 141.556C19.9332 140.662 19.9332 139.721 19.8862 138.828C19.7452 136.712 19.6511 134.595 19.4161 132.479C19.228 130.598 18.946 128.717 18.7109 126.836C18.6639 126.459 18.7109 126.083 18.6639 125.754C18.3818 121.945 18.0997 118.182 17.8177 114.373C17.7236 113.338 17.8177 112.304 17.7707 111.316C17.7707 111.081 17.6766 110.846 17.5826 110.658C17.4416 110.846 17.2535 111.034 17.1125 111.222C15.9372 113.574 14.7149 115.925 13.5396 118.276C12.0352 121.38 10.6248 124.484 9.07345 127.541C7.94517 129.751 6.67584 131.868 5.40652 134.031C4.65433 135.301 3.80812 136.476 3.10294 137.746C2.82087 138.217 2.77385 138.781 2.49178 139.251C2.20971 139.721 1.7866 140.145 1.31648 140.427C1.12843 140.521 0.470266 140.286 0.376242 140.051C0.282218 139.768 0.376239 139.251 0.564287 138.969C1.73959 137.182 3.05592 135.536 4.18421 133.702C5.50054 131.585 6.62883 129.375 7.80413 127.165C8.4623 125.989 9.07345 124.813 9.68461 123.591C10.5308 121.898 11.283 120.158 12.1292 118.418C13.1635 116.254 14.2448 114.091 15.3731 111.928C15.7962 111.034 16.4073 110.235 16.7834 109.341C17.0655 108.636 17.3005 107.789 17.2535 107.037C17.1595 105.344 16.7834 103.698 16.6424 102.005C16.5013 100.171 16.4073 98.3364 16.3603 96.5493C16.3133 94.1038 14.8559 73.0821 14.5268 71.6713C14.2918 70.6837 14.8089 69.6491 15.8432 69.3669C16.8304 69.0847 17.8647 69.0377 18.8519 68.8026C20.4033 68.4263 21.9547 68.0031 23.5061 67.5328C25.1986 67.0625 26.844 66.4982 28.5364 66.0279C30.5579 65.4635 32.6264 64.9933 34.695 64.4759C36.5754 64.0057 38.4559 63.4883 40.3364 63.0181C41.8408 62.6418 43.3452 62.3597 44.8025 61.9364C48.1404 61.0429 51.4312 60.1023 54.7691 59.2558C57.8248 58.4563 60.8806 57.7038 63.9364 57.0455C66.146 56.5752 68.4025 56.246 70.6121 55.7757C72.0225 55.4935 73.3858 55.1173 74.7962 54.8351C76.9587 54.4589 79.1213 54.1767 81.2838 53.7535C83.3993 53.3302 85.4209 52.6718 87.5364 52.1545C88.4766 51.9193 89.4639 51.8253 90.4511 51.6372C92.0495 51.308 93.3659 52.1545 94.6822 52.8129C95.8575 53.3772 97.0328 53.9886 98.2551 54.5529C98.7723 54.7881 98.8663 55.1643 98.9133 55.7287C98.9603 56.6692 99.1013 57.6098 99.2424 58.5504C99.5715 60.6196 99.9946 62.6889 100.324 64.7581C100.465 65.6987 100.653 66.6863 100.747 67.6739C100.841 68.3793 100.747 69.0377 100.841 69.7431C101.17 71.8124 101.546 73.8816 101.828 75.9509C102.016 77.5498 102.016 79.1958 102.157 80.7948C102.486 84.1338 102.862 87.4728 103.238 90.8589C103.379 91.9405 103.567 93.0222 103.709 94.1039C103.756 94.339 103.897 94.5741 103.991 94.7622C104.226 94.6212 104.461 94.5741 104.602 94.386C105.73 92.9752 106.858 91.5173 107.987 90.0594C109.068 88.6015 110.102 87.1436 111.136 85.6858C112.547 83.6635 113.957 81.6883 115.32 79.6191C117.389 76.4682 119.363 73.2232 121.432 70.0723C122.936 67.815 124.535 65.6516 126.039 63.3473C126.979 61.9364 127.732 60.4315 128.625 58.9736C129.283 57.8449 129.941 56.6692 130.74 55.6816C131.634 54.5529 131.728 53.3772 131.493 52.1075C130.458 46.2289 129.377 40.3033 128.343 34.4248C128.155 33.4842 128.625 32.7318 129.001 31.9323C129.565 30.7095 130.129 29.4868 130.74 28.2641C131.446 26.3829 132.339 26.3829 133.138 27.8878C133.984 29.0635 134.736 30.3333 135.489 31.6031C135.677 31.9323 135.771 32.4026 135.724 32.7788C135.536 35.5535 136.758 44.3948 136.946 46.0878C137.228 48.4863 137.604 50.8377 137.933 53.1891C138.121 54.5059 137.933 54.7881 136.57 54.8351C136.382 54.7881 136.053 54.7881 135.536 54.7881Z" fill="#181715"/>
<path fill-rule="evenodd" clip-rule="evenodd" d="M190.586 48.7685C190.586 49.4739 190.774 50.3204 190.869 50.5085C191.01 50.2734 191.95 48.9566 192.091 48.3923C192.232 47.875 191.997 47.4517 191.527 47.3106C191.01 47.1225 190.586 48.016 190.586 48.7685ZM185.415 49.615C185.744 50.4145 186.12 51.214 186.496 52.0135C186.543 52.1545 186.778 52.2016 186.919 52.2486C186.967 52.2486 187.108 52.0135 187.108 51.9194C186.92 51.0259 186.731 50.1323 186.496 49.2858C186.449 49.0977 186.12 48.9566 185.885 48.8155C185.744 49.0036 185.603 49.2858 185.415 49.615ZM188.847 58.3153V60.9489C188.847 61.137 188.988 61.3251 189.082 61.5132C189.176 61.3251 189.411 61.137 189.411 60.9489C189.458 58.9266 189.458 56.8574 189.458 54.7881C189.458 54.6 189.223 54.4589 189.082 54.2708C188.941 54.506 188.706 54.7411 188.706 54.9292C188.706 55.9638 188.8 56.9044 188.847 58.3153ZM189.928 67.1566C190.21 67.1096 190.539 67.1096 190.822 67.1096H192.655C192.608 66.4982 192.514 65.8868 192.561 65.2755C192.608 64.476 192.326 64.2408 191.574 64.2879C189.505 64.3819 187.437 64.3819 185.321 64.476C185.18 64.476 184.898 64.6171 184.898 64.7111C184.804 65.3225 184.71 65.9339 184.71 66.5452C184.71 66.6863 185.039 66.8744 185.274 66.9215C186.825 66.9685 188.377 67.0626 189.928 67.1566ZM187.249 68.5675C187.014 68.5675 186.731 68.5204 186.496 68.5204C184.381 68.4264 184.71 68.2853 184.381 70.4486V70.5427C184.287 71.06 184.475 71.4362 184.992 71.4832C185.556 71.5773 189.505 72.0476 190.963 72.1887C191.339 72.2357 191.997 72.0476 192.044 71.8124C192.279 71.0129 192.373 70.1194 192.42 69.2729C192.42 69.2259 192.044 69.0848 191.856 69.0848C190.304 68.8496 187.249 68.5204 187.249 68.5675ZM198.578 39.598C194.865 38.4693 189.646 38.046 185.791 37.8109C183.582 37.7168 181.419 37.7638 179.21 37.8109C178.457 37.8109 178.128 38.2812 178.175 39.0336C178.222 40.3974 178.269 41.7142 178.222 43.0781C178.175 46.276 178.128 49.4739 178.034 52.6719C177.987 54.1768 177.94 54.1297 179.492 54.2708C179.774 54.2708 180.056 54.4119 180.338 54.4589C181.043 54.553 181.748 54.6 182.453 54.7881C183.253 54.9292 184.099 55.0703 184.757 55.4465C185.039 55.6346 184.945 56.5282 184.945 57.0925C184.945 58.1272 184.992 59.2088 184.804 60.2434C184.616 61.2781 184.616 61.4191 185.65 61.5132C186.026 61.5602 186.449 61.5132 186.825 61.4191C186.92 61.4191 187.061 61.231 187.108 61.0899C187.202 59.3499 187.249 57.6098 187.343 55.9168C187.39 55.0703 187.202 54.3649 186.261 53.9887C185.885 53.8476 185.462 53.7065 185.227 53.4243C183.723 51.8253 183.676 49.8972 183.911 47.875C183.911 47.7339 184.099 47.5458 184.193 47.4047C184.804 46.7463 186.637 45.9468 187.155 46.276C188.142 46.8874 188.283 47.922 188.377 48.9566V49.2858C188.424 49.9912 188.471 50.6967 188.565 51.3551C188.565 51.5432 188.8 51.6843 188.894 51.8253C189.035 51.6372 189.27 51.4961 189.27 51.308C189.364 50.1794 189.317 49.0507 189.458 47.922C189.505 47.3576 189.74 46.7933 190.022 46.276C190.445 45.4765 191.292 45.3354 192.044 45.6176C192.561 45.8057 193.266 46.276 193.36 46.7463C193.548 47.5458 193.454 48.4393 193.172 49.1918C192.749 50.2734 192.044 51.214 191.48 52.2486C191.292 52.6248 191.104 53.0481 191.057 53.4713C191.01 56.0109 191.01 58.5034 191.057 61.0429C191.057 61.3251 191.527 61.7013 191.809 61.7954C192.232 61.8894 192.561 61.6073 192.514 61.0429C192.467 60.6197 192.514 60.1494 192.514 59.7261C192.514 58.8326 192.514 57.939 192.608 57.0925C192.655 56.3401 193.219 56.0109 193.877 56.0579C195.57 56.199 197.309 56.246 199.002 56.3401C199.519 56.3401 199.801 56.152 199.754 55.5406C199.707 54.8352 199.848 54.0827 199.895 53.3773C200.224 50.0383 200.694 40.8207 200.694 39.9272L198.578 39.598ZM182.782 70.4016C182.923 68.5204 183.065 66.6863 183.159 64.8052C183.206 63.7235 183.206 62.5949 183.3 61.5132C183.347 60.4786 183.488 59.491 183.629 58.4564C183.77 57.3747 183.488 56.8574 182.406 56.5752C180.761 56.152 179.163 55.7287 177.517 55.4465C176.906 55.3525 176.671 55.0703 176.671 54.506C176.718 53.0481 176.718 51.5902 176.812 50.1323C176.859 48.3452 177.047 46.5582 177.047 44.7711C177.047 42.5607 176.953 40.3974 176.859 38.1871C176.812 36.353 177.047 36.1179 178.927 36.1179C180.714 36.1179 182.5 36.0238 184.287 36.1179C187.296 36.2589 190.351 36.306 193.313 36.9173C194.959 37.2465 196.651 37.1995 198.296 37.4817C199.519 37.6698 200.694 38.046 201.869 38.4222C202.104 38.5163 202.292 39.1277 202.292 39.4569C202.198 41.9494 202.057 44.4419 201.916 46.9344C201.775 49.0977 201.681 51.261 201.493 53.4243C201.399 54.6941 201.258 56.0109 201.117 57.2806C201.117 57.4688 200.741 57.7039 200.506 57.7039C199.284 57.798 198.014 57.845 196.745 57.892C196.51 57.892 196.228 57.845 195.993 57.892C193.83 58.2212 193.924 57.845 193.877 60.2434C193.877 64.3819 193.736 68.4734 193.642 72.6119C193.642 73.4584 193.172 73.7876 192.373 73.6936C190.586 73.4584 188.8 73.2233 187.061 73.0352C186.261 72.9411 185.462 72.8 184.663 72.8C183.159 72.8 182.971 72.706 182.876 71.154C182.876 70.9189 182.876 70.6367 182.876 70.4016C182.829 70.4016 182.829 70.4016 182.782 70.4016Z" fill="#181715"/>
<path fill-rule="evenodd" clip-rule="evenodd" d="M207.276 43.9716C208.78 44.1126 210.144 44.2067 211.507 44.3478C211.836 44.3948 212.259 44.4418 212.4 44.677C212.682 45.0532 212.259 46.2289 211.883 46.2289C210.238 46.1819 208.592 46.0408 206.947 45.9468C206.524 45.8997 206.054 45.8527 205.677 45.7116C205.442 45.6176 205.113 45.1943 205.16 45.0532C205.254 44.724 205.536 44.3478 205.865 44.2067C206.336 43.9716 206.853 44.0186 207.276 43.9716Z" fill="#181715"/>
<path fill-rule="evenodd" clip-rule="evenodd" d="M204.878 31.1328C205.442 30.9447 205.489 30.5215 205.207 30.0982C204.972 29.722 204.737 29.1106 204.126 29.4868C202.574 30.5215 201.07 31.5561 199.566 32.6377C199.331 32.7788 199.143 33.155 199.19 33.3902C199.237 33.7664 198.955 34.2837 199.707 34.5659L204.878 31.1328Z" fill="#181715"/>
<path fill-rule="evenodd" clip-rule="evenodd" d="M173.004 42.6548C170.701 42.5137 168.632 41.5261 166.47 40.8677C166.282 40.8207 166.046 40.4915 166.093 40.3034C166.093 40.1153 166.329 39.8331 166.517 39.739C166.705 39.645 167.081 39.598 167.269 39.692C169.149 40.6796 171.265 40.8677 173.239 41.338C173.568 41.4321 173.897 41.6202 174.227 41.8083C174.368 41.9024 174.509 42.1845 174.509 42.3256C174.462 42.4667 174.18 42.6078 174.039 42.6078C173.662 42.7018 173.333 42.6548 173.004 42.6548Z" fill="#181715"/>
<path fill-rule="evenodd" clip-rule="evenodd" d="M190.586 30.1922C190.774 29.6749 190.915 29.2987 191.104 28.9695C191.809 27.7467 192.514 26.571 193.266 25.3953C193.454 25.1131 193.924 24.831 194.3 24.7839C194.535 24.7839 194.959 25.2072 194.959 25.4894C194.959 25.8186 194.676 26.1478 194.488 26.477C193.877 27.5116 193.219 28.5462 192.608 29.6279C192.467 29.863 192.467 30.1922 192.326 30.4273C192.091 30.7565 190.868 30.5684 190.586 30.1922Z" fill="#181715"/>
<path fill-rule="evenodd" clip-rule="evenodd" d="M179.21 26.2889C179.633 26.6652 180.15 27.0414 180.385 27.4646C180.996 28.5933 181.419 29.769 181.984 30.9448C182.313 31.6031 182.125 32.4026 181.513 32.7318C180.855 33.1081 180.667 32.4967 180.479 32.1205C180.197 31.5091 180.009 30.8037 179.727 30.1923C179.398 29.5809 178.975 29.0166 178.646 28.3582C178.458 27.982 178.317 27.5587 178.364 27.1825C178.411 26.9473 178.834 25.9127 179.21 26.2889Z" fill="#181715"/>
<path fill-rule="evenodd" clip-rule="evenodd" d="M64.8766 107.601C64.8296 107.178 64.7356 106.755 64.6886 106.284C64.5946 105.861 64.6886 105.391 65.2057 105.391C65.5818 105.391 66.0049 105.626 66.287 105.861C66.475 106.002 66.428 106.425 66.428 106.708C66.428 107.695 66.381 108.683 66.428 109.67C66.475 110.47 66.0519 110.799 65.3468 110.94C62.432 111.363 59.5173 111.834 56.6025 112.21C53.8288 112.586 51.0081 112.821 48.2344 113.15C47.3882 113.244 46.9181 112.962 46.683 112.163C46.3069 110.94 45.8838 109.717 45.5077 108.495C45.4607 108.307 45.3667 108.024 45.4137 107.836C45.5077 107.507 45.6488 106.99 45.8838 106.896C46.4009 106.661 46.683 107.084 46.8241 107.554C47.2001 108.589 47.5762 109.623 47.9053 110.658C48.0464 111.081 48.2344 111.175 48.6575 111.222C50.9611 111.457 53.1707 110.987 55.3802 110.658C58.0599 110.282 60.7396 110.047 63.4193 109.717C64.4535 109.623 64.8296 109.059 64.8766 107.601Z" fill="#181715"/>
<path fill-rule="evenodd" clip-rule="evenodd" d="M43.7683 88.8838C43.0631 88.9308 42.8281 88.4605 42.7811 87.8491C42.7341 87.1437 43.2982 86.8616 43.8623 86.8616C44.5675 86.8145 44.7086 87.4259 44.8026 87.9902C44.8496 88.6957 44.2855 88.8367 43.7683 88.8838Z" fill="#181715"/>
<path fill-rule="evenodd" clip-rule="evenodd" d="M78.3692 83.6635C78.4163 84.5571 77.523 84.8863 77.288 84.7922C76.9119 84.6981 76.1597 84.3219 76.2067 83.4754C76.2537 82.6759 76.8649 82.6759 77.288 82.6289C77.523 82.6289 78.3222 82.77 78.3692 83.6635Z" fill="#181715"/>
</g>
<defs>
<clipPath id="clip0_120_958">
<rect width="236" height="182" fill="white"/>
</clipPath>
</defs>
</svg>
