<svg width="324" height="420" viewBox="0 0 324 420" fill="none" xmlns="http://www.w3.org/2000/svg">
<mask id="mask0_171_708" style="mask-type:luminance" maskUnits="userSpaceOnUse" x="69" y="111" width="160" height="173">
<path d="M228.8 111.5H69.8898V283.42H228.8V111.5Z" fill="white"/>
</mask>
<g mask="url(#mask0_171_708)">
<mask id="mask1_171_708" style="mask-type:luminance" maskUnits="userSpaceOnUse" x="69" y="111" width="160" height="173">
<path d="M228.8 111.5H69.8898V283.42H228.8V111.5Z" fill="white"/>
</mask>
<g mask="url(#mask1_171_708)">
<mask id="mask2_171_708" style="mask-type:luminance" maskUnits="userSpaceOnUse" x="55" y="100" width="101" height="75">
<path d="M155.409 100.31H55.4992V174.46H155.409V100.31Z" fill="white"/>
</mask>
<g mask="url(#mask2_171_708)">
<path d="M124.129 172.86C123.834 172.219 123.714 171.511 123.78 170.809C123.847 170.106 124.099 169.434 124.509 168.86C126.028 163.059 127.899 157.355 130.109 151.78C131.06 149.062 132.279 146.446 133.749 143.97C135.169 141.17 135.689 138.21 136.839 135.33C137.599 133.41 139.009 132.47 139.839 130.78C140.429 129.53 140.259 128.27 141.039 127.2C140.569 127.04 140.059 127.04 139.589 127.2C137.419 126.12 134.539 125.34 132.079 123.89C124.589 119.49 117.519 115.3 108.869 113.73C102.989 112.67 95.7491 110.78 89.8691 111.86C89.4891 113.72 90.3891 116.03 89.8691 117.79C88.8691 121.19 81.7091 124.11 78.5391 125.01C75.7391 125.81 68.6391 126.64 70.1991 131.54C71.2991 135.02 75.5891 134.12 78.0591 135.62C80.5291 137.12 79.8891 139.13 79.8391 141.72C79.7691 145.58 77.1891 153.17 79.4491 156.82C80.5491 158.59 83.2691 159.08 85.0791 160C88.2591 161.61 87.7391 161.3 90.6791 160C91.8991 159.44 93.2491 159.51 94.5091 159.07C96.5091 158.37 97.5091 157.28 99.6791 157C102.459 156.64 104.879 157.08 106.059 160C106.729 161.63 106.329 162.46 107.589 163.62C108.849 164.78 112.259 165.62 114.229 166.02C117.399 166.73 122.509 168.13 124.669 170.73" fill="#FFA92C"/>
</g>
<mask id="mask3_171_708" style="mask-type:luminance" maskUnits="userSpaceOnUse" x="107" y="179" width="82" height="63">
<path d="M188.52 179.89H107.56V241.51H188.52V179.89Z" fill="white"/>
</mask>
<g mask="url(#mask3_171_708)">
<path d="M172.16 200.5C172.16 197.36 172.16 194.22 172.16 191.08C172.23 194.15 166.63 193.29 165.11 193.28C157.92 193.22 150.97 194.28 143.84 194.16C138.57 194.1 134.37 195.35 129.25 196.23C128.06 196.43 125.39 196.42 124.25 196.83C122.13 197.61 122.7 197.83 122.25 199.83C121.16 205.05 122.78 210.83 124.11 215.83C124.79 218.36 125.11 220.83 125.91 223.35C126.01 223.66 126.75 227.45 126.91 227.62C128.26 228.79 133.16 227.46 134.78 227.74C137.48 228.19 137.33 228.65 137.63 231.27C137.93 233.89 138.79 237.07 141.24 238.72C143.46 240.21 149.89 240.32 152.64 239.35C156.89 237.86 155.48 232.7 160.01 231.87C162.284 231.559 164.533 231.085 166.74 230.45C167.94 230.06 170.27 230.06 171.28 229.62C173.03 228.86 173.51 227.62 173.88 226.04C174.31 224.23 173.88 219.15 172.34 218.04C170.97 217.1 169.26 218.54 167.71 218.16C166.71 214.32 164.66 211.07 164.84 206.99C166.699 206.843 168.538 206.508 170.33 205.99C173.64 204.93 172.95 203.64 172.98 200.5" fill="#4E4EE4"/>
</g>
<mask id="mask4_171_708" style="mask-type:luminance" maskUnits="userSpaceOnUse" x="169" y="211" width="75" height="68">
<path d="M243.189 211.62H169.559V278.68H243.189V211.62Z" fill="white"/>
</mask>
<g mask="url(#mask4_171_708)">
<path d="M228.38 274.48C228.38 265.7 229.28 256.57 227.76 247.91C227.319 245.247 226.605 242.637 225.63 240.12C224.63 237.65 224.27 234.77 223.05 232.39C221.18 234.34 213.65 233.62 211.25 233.04C208.7 232.42 209.46 231.7 208.58 229.83C208.58 229.74 207.24 228.35 207.15 228.23C206.384 226.993 205.485 225.843 204.47 224.8C203.756 224.103 202.902 223.567 201.965 223.227C201.027 222.887 200.028 222.752 199.034 222.829C198.04 222.907 197.074 223.196 196.2 223.677C195.327 224.159 194.566 224.821 193.97 225.62C192.35 227.62 193.72 231.4 191.9 232.44C190.52 233.23 187.3 232.31 185.74 233.21C184.41 233.98 184.43 234.4 184.2 235.77C183.55 239.77 184.25 244.27 184.84 248.18C185.09 249.83 184.94 255.67 186.38 256.73C187.82 257.79 190.79 256.63 192.53 257.63C196.95 260.17 193.3 263.63 190.01 264.83C188.62 265.35 187.61 265.03 186.64 266.6C185.24 268.85 185.78 272.7 185.94 275.23C189.8 275.67 193.71 277 197.73 277.07C202.595 277.056 207.454 276.738 212.28 276.12C216.15 275.71 220.17 276.32 224.07 276.12C225.67 276.06 227.34 275.12 228.8 275.28" fill="#FFD89F"/>
</g>
<mask id="mask5_171_708" style="mask-type:luminance" maskUnits="userSpaceOnUse" x="112" y="216" width="90" height="70">
<path d="M201.1 216.04H112.36V285.01H201.1V216.04Z" fill="white"/>
</mask>
<g mask="url(#mask5_171_708)">
<path d="M186.659 264.38C186.659 262.27 187.129 260.08 185.569 258.5C184.009 256.92 179.809 256.69 177.569 255.96C173.209 254.54 172.069 253.96 172.139 248.96C172.229 243.22 173.199 236.02 171.979 230.39C170.269 229.92 171.139 231.39 170.219 232.04C169.299 232.69 169.509 232.81 167.879 233.13C165.559 233.58 163.319 232.32 161.049 232.62C160.049 235.54 160.679 239.95 157.659 242.09C155.469 243.65 150.209 243.3 147.659 243.63C145.369 243.93 143.799 244.2 142.069 242.3C138.719 238.62 138.619 229.69 133.589 227.55C131.259 226.55 129.219 228.02 126.939 227.77C126.499 229.25 126.779 231.24 126.749 232.84C126.589 242.72 128.899 252.24 129.199 262.1C129.399 268.68 130.659 274.99 131.399 281.4C136.259 282.1 141.619 281.89 146.519 281.95C150.779 281.95 155.079 281.67 159.339 281.87C162.099 282.01 164.729 282.87 167.499 282.95C169.099 283.02 176.159 284.04 177.409 282.71C178.409 281.61 177.539 275.58 177.539 274.3C177.539 271.72 177.459 269.11 177.539 266.53C177.619 263.95 177.209 263.85 179.429 263.37C180.839 263.07 182.619 263.84 183.979 263.37C186.289 262.61 185.639 262.24 185.689 259.44" fill="#A4A4FF"/>
</g>
</g>
</g>
<path d="M254.37 94.14C257.507 93.0648 260.698 92.1536 263.93 91.41C268.51 90.48 273.04 89.33 277.58 88.22C278.388 88.0474 279.122 87.6288 279.683 87.0218C280.243 86.4148 280.602 85.6491 280.71 84.83C281.105 80.5073 282.263 76.2887 284.13 72.37C284.359 71.9911 284.455 71.5469 284.405 71.1072C284.354 70.6675 284.159 70.2569 283.85 69.94C280.42 65.6 265.61 42.24 264.68 40.02C265.986 38.8958 267.572 38.1459 269.27 37.85C277.73 35.71 286.27 34.61 295.02 35.94C299.62 36.64 303.84 38.62 308.31 39.77C311.45 40.58 314.56 41.53 317.65 42.51C318.973 42.9413 320.252 43.4971 321.47 44.17C322.37 44.67 323.2 44.65 323.52 43.79C323.77 43.11 323.62 42.38 322.62 41.71C319.83 39.85 309.62 35.71 300.52 33.83C293.995 32.5284 287.328 32.0913 280.69 32.53C274.958 33.1252 269.318 34.4043 263.89 36.34C263.643 36.4732 263.371 36.553 263.092 36.5743C262.812 36.5955 262.531 36.5578 262.267 36.4635C262.003 36.3692 261.762 36.2205 261.559 36.0269C261.356 35.8334 261.196 35.5993 261.09 35.34C257.3 29.53 253.72 23.59 249.6 18C247.39 15 245.18 12 243.27 8.83998C242.307 6.98892 241.571 5.02797 241.08 2.99999C240.08 -0.170011 238.8 -0.65001 236.08 1.10999C233.36 2.86999 230.17 3.37999 227.24 4.57999C221.52 6.92999 215.49 8.23999 209.58 9.94999C205.03 11.4415 200.561 13.1671 196.19 15.12C191.416 16.9546 186.743 19.0408 182.19 21.37C175.08 25.2 167.76 28.65 160.92 32.99C157.14 35.5225 153.054 37.5655 148.76 39.07C147.443 39.3751 146.234 40.0321 145.262 40.9709C144.29 41.9096 143.591 43.0949 143.24 44.4C142.24 47.25 143.99 49.29 144.94 51.46C147.61 57.59 150.67 63.55 153.46 69.63C154.355 71.259 155.333 72.8411 156.39 74.37C154.22 75.09 152.13 75.72 150.11 76.5C142.11 79.57 134.23 83.11 127.92 88.96C122.98 93.3328 118.947 98.6331 116.05 104.56C114.549 107.798 113.422 111.197 112.69 114.69C109.4 114.69 106.41 113.57 103.33 113.02C99.7298 112.353 96.1231 111.79 92.5098 111.33C91.1198 111.14 89.7998 110.54 88.4198 110.21C86.6198 109.77 85.4198 109.98 84.9598 112.29C84.2024 115.614 82.8871 118.786 81.0698 121.67C80.1751 121.622 79.2838 121.526 78.3998 121.38C74.1898 120.5 70.7498 122.5 67.5798 124.65C64.4098 126.8 64.8598 132.57 67.9498 135.45C69.8564 137.088 71.9551 138.489 74.1998 139.62C76.1998 140.77 75.3498 142.36 75.0998 143.71C74.9823 144.354 74.625 144.93 74.0999 145.322C73.5748 145.713 72.9209 145.891 72.2698 145.82C65.5798 145.66 53.8398 146.52 52.0498 148.53C50.2598 150.54 51.5498 151.01 51.5098 153.24C51.5257 160.828 52.0972 168.405 53.2198 175.91C54.3198 184.49 55.8498 193.01 56.7698 201.62C58.0498 213.68 59.3498 225.75 61.0198 237.77C61.8298 243.6 62.0198 249.53 63.0198 255.37C64.6198 265.61 64.3298 275.96 65.0198 286.25C65.4698 293.02 65.9598 299.79 66.2498 306.57C66.4198 310.5 66.2498 314.45 66.2498 318.38C66.2435 318.688 66.1629 318.989 66.0149 319.259C65.8669 319.529 65.6559 319.759 65.3998 319.93C58.2298 325.66 38.1198 344.93 34.4898 348.04C29.0298 352.79 12.2798 367.57 9.61978 370.46C6.43978 373.9 1.09978 378.97 0.559784 381.19C0.0197839 383.41 1.2998 388.07 1.3298 389.93C1.3298 391.61 0.799799 393.39 1.6998 394.93C2.8598 396.93 39.3198 399.05 45.8298 399.72C52.3398 400.39 82.3798 404.97 86.7498 405.8C90.4598 406.51 94.2398 406.17 97.9798 406.67C100.6 407.03 121.8 408.57 129.62 409.84C134.49 410.63 212.13 417.11 216.15 418.36C216.85 418.58 217.57 418.68 218.28 418.9C219.81 419.38 223.55 419.38 225.21 418.42C230.83 415.18 247.54 403.57 251.36 400.91C256.56 397.29 270.71 386.27 272.88 384.81C277.02 382 280.46 378.38 284.12 375.06C288.57 371.06 293.56 367.69 297.94 363.57C300.68 361 304.09 359.14 306.77 356.52C309.45 353.9 313.11 352.01 315.89 349.24C317.39 347.75 317.53 346.16 317.39 344.24C317.18 341.45 315.61 327.35 315.71 326.45C316.39 320.5 315.5 314.53 315.92 308.57C316.5 300.28 315.4 292.05 315.07 283.8C314.74 275.35 314.57 266.87 313.28 258.53C312.15 251.23 312.05 243.86 311.06 236.53C310.38 231.53 310.53 226.45 309.82 221.43C308.97 215.43 305.42 155.74 305.45 147.43C305.45 144.16 304.89 140.92 305.25 137.61C305.48 135.61 304 134.81 301.95 134.81C298.15 134.81 288.27 134.64 287.15 134.81C282.85 135.24 278.55 135.07 274.25 135.15C270.52 135.22 266.78 135.15 263.05 135.21C261.05 135.27 258.84 135.46 257.05 134.65C254.69 133.65 256.42 131.13 255.98 129.33C254.98 125.33 255.85 121.17 255.82 117.07C255.61 109.51 256.03 101.93 254.37 94.14ZM295.07 311.6C289.02 311.3 199.02 309.44 194.38 309.08C187.78 308.57 168.04 308.43 162.45 308.19C162.08 308.19 161.77 308.19 161.54 308.14C156.54 307.78 90.0898 305.46 84.1798 306.39C81.1798 306.86 80.7198 306.05 80.8398 303.13C80.8398 302.66 80.7298 302.19 80.6998 301.72C80.4598 298 80.2698 294.28 79.9798 290.57C79.6698 286.57 79.8698 282.63 79.7098 278.67C79.5098 273.97 78.7898 269.29 78.2498 264.61C77.5298 258.29 76.5998 251.99 76.0598 245.66C75.6298 240.66 68.3198 179.66 66.4398 171.44C65.6714 167.989 65.5932 164.421 66.2098 160.94C67.3282 161.026 68.4515 161.026 69.5698 160.94C71.4098 160.65 80.4498 161.58 82.4298 162.57C84.689 163.786 87.0557 164.79 89.4998 165.57C91.7498 166.21 92.5498 165.79 92.8898 163.52C93.3798 160.18 94.5598 158.81 97.7098 158.6C99.5298 158.48 101.44 157.82 103.25 158.87C105.56 160.22 106.05 162.36 104.66 165.44C103.56 167.89 104.22 169.58 106.4 169.63C111.73 169.76 116.25 172.1 120.82 174.46C122.21 175.18 123.71 176.79 125.44 175.46C126.85 174.46 129.44 168.82 130.05 167.68C131.38 165.21 133.05 162.91 133.99 160.1C137.75 159.04 141.71 159.48 145.58 159.33C154.44 158.98 163.33 159.14 172.2 159C181.65 158.85 191.11 158.74 200.55 158.33C208.12 158 244.22 156.5 254.7 155.86C260.8 155.48 266.91 155.4 273.01 155.35C276.84 155.35 280.7 154.92 284.61 155.59C284.08 164.54 285.84 173.3 286.09 182.17C286.39 192.59 286.68 203.02 287.5 213.45C288.4 224.95 290.09 236.35 290.96 247.84C291.43 254.14 291.68 260.45 292.26 266.73C293.26 277.56 296.02 307.29 295.07 311.6ZM6.4498 380.79C6.6998 380.09 6.7298 379.68 6.9498 379.48C10.6498 376.09 12.9498 371.48 16.7698 368.21C18.5115 366.838 20.1804 365.376 21.7698 363.83C26.8298 358.54 32.6198 354.1 38.3998 349.66C42.1998 346.73 59.7898 330.39 65.0498 325.44C66.4998 324.08 68.3298 322.58 70.1798 322.27C75.5598 321.37 106.88 323.58 114.28 323.8C123.96 324.1 171.5 325.96 174.03 326.1C177.58 326.31 191.8 326.63 195.35 326.78C199.27 326.94 219.86 328 226.24 328.19C232.32 328.37 274.34 330.74 280.97 330.8C286.73 330.85 292.54 331.09 298.31 331.59C302.259 331.833 306.179 332.411 310.03 333.32C309.697 334.347 309.023 335.229 308.12 335.82C304.74 338.51 301.75 341.63 298.58 344.53C291.58 350.94 283.67 356.3 276.71 362.77C274.18 365.13 271.36 367.12 268.71 369.38C264.1 373.38 259.71 377.58 254.87 381.38C249.63 385.5 244.23 389.38 239.19 393.76C236.8 395.83 226.4 402.04 224.3 403.92C220.73 407.12 217.03 407.45 212.58 406.01C208.771 404.878 204.864 404.107 200.91 403.71C193.06 402.77 185.16 402.25 177.31 401.29C170.24 400.42 163.11 400.43 156.03 399.69C152.25 399.29 117.86 395.69 112.88 394.85C104.94 393.44 96.9298 392.58 88.9898 391.28C85.5198 390.71 81.9898 390.52 78.4998 390.06C69.3098 388.86 60.0598 388.34 50.8398 387.34C41.9698 386.34 33.2098 384.68 24.3598 383.7C20.0198 383.23 15.8298 381.87 11.4298 381.82C9.74216 381.627 8.07542 381.283 6.4498 380.79ZM73.5598 149.15C72.8498 151.32 72.2198 153.15 71.6298 155.03C71.5323 155.574 71.2441 156.065 70.817 156.415C70.39 156.765 69.8519 156.951 69.2998 156.94C67.8398 156.88 62.6798 156.44 61.8898 159.48C61.0998 162.52 62.3198 165.94 62.8898 169.14C64.1898 176.46 66.5898 200.37 67.3798 204.88C68.7598 212.75 76.5998 274.97 76.7898 287.63C76.8798 293.87 77.5598 300.1 76.9898 306.34C76.7198 309.19 77.0598 309.76 79.9898 309.75C84.5798 309.75 89.1798 309.62 93.7698 309.66C98.3598 309.7 102.77 309.84 107.33 310.03C111.06 310.19 114.78 309.72 118.49 309.82C125.14 309.98 131.8 310.82 138.49 310.82C144.55 310.76 150.6 311.16 156.65 311.2C164.4 311.2 172.15 311.95 179.9 312.2C188.75 312.46 197.58 313 206.45 312.8C213.71 312.64 221 313.1 228.27 313.49C236.27 313.91 244.27 313.49 252.34 313.94C257.74 314.27 263.18 314.38 268.6 314.19C277.11 313.9 285.53 315.12 294.02 315.19C298.02 315.24 299.92 313.38 299.13 309.56C298.91 308.51 290.02 194.12 289.66 187.66C289.25 180.17 289.4 172.66 288.27 165.19C287.778 161.481 287.651 157.733 287.89 154C287.94 152.8 288.3 151.68 287.27 150.88C286.24 150.08 193.66 155.88 187.15 155.74C181.87 155.6 163.75 155.63 159.98 155.47C157.09 155.34 154.05 155.67 151.11 155.76C147.71 155.87 144.3 155.96 140.89 156.06H135.55C136.9 152.82 138.07 150.06 139.18 147.38C160.39 147.97 181.08 143.23 202.34 142.48C202.064 142.752 201.804 143.039 201.56 143.34C200.77 144.53 200.56 145.85 201.75 146.76C203.16 147.82 203.51 146.24 204.15 145.48C205.68 143.65 206.74 141.26 209.62 141.09C211.99 140.95 214.36 140.65 216.73 140.58C226.02 140.29 235.32 140.32 244.57 139.05C246.04 138.85 247.66 138.05 249.34 138.98C249.2 139.355 249.018 139.714 248.8 140.05C247.88 141.14 247.64 142.51 248.85 143.21C250.06 143.91 250.95 142.58 251.63 141.59C251.764 141.286 251.874 140.971 251.96 140.65C252.224 139.873 252.745 139.209 253.438 138.769C254.131 138.329 254.954 138.138 255.77 138.23C257.05 138.34 258.36 138.17 259.65 138.23C268.93 138.38 278.21 138.46 287.49 137.82C292.052 137.629 296.621 137.927 301.12 138.71C301.71 143.71 303.71 197.81 303.88 201.15C304.083 205.793 304.577 210.419 305.36 215C306.84 223.44 311.13 277.15 311.69 286.16C312.42 297.83 312.25 309.52 312.25 321.16C312.25 323.63 312.04 326.1 311.92 328.71C311.18 328.56 261.24 326.71 256.78 326C254.176 325.602 251.552 325.355 248.92 325.26C243.21 325.04 195.43 323.44 191.06 323.38C187.19 323.38 183.28 322.74 179.39 322.58C175.26 322.41 145.12 321.13 141.1 320.65C137.3 320.19 112.23 319.81 103.58 319.32C100.42 319.14 75.3598 318.02 69.4698 317.32C69.4698 315.76 69.5398 314.2 69.4698 312.65C68.6765 296.577 67.8698 280.51 67.0498 264.45C66.5198 254.45 63.8998 244.65 63.4298 234.6C63.2698 231.16 62.4298 227.77 62.0098 224.34C61.4298 219.34 61.0098 214.34 60.4698 209.41C60.0098 204.92 59.0398 200.46 58.7898 195.99C58.4398 189.67 56.9798 183.56 56.1498 177.34C55.0798 169.34 54.0598 161.26 54.3798 153.13C54.3323 152.414 54.5657 151.707 55.0306 151.16C55.4955 150.613 56.1552 150.269 56.8698 150.2C60.0202 149.685 63.2075 149.427 66.3998 149.43C68.7098 149.47 71.0198 148.8 73.5598 149.15ZM230.47 12.15C233.39 17.26 236.11 22.23 239.02 27.08C241.72 31.57 244.74 35.88 247.4 40.39C251.15 46.75 254.51 53.32 258.72 59.39C263.3 66.01 267.72 72.76 272.1 79.49C273.19 81.15 274.46 82.79 274.56 85.12L268.24 87.12C261.32 89.3 254.07 90.12 247.12 92.12C244.12 93 241.26 94.57 238.22 95.33C231.27 97.08 224.22 98.58 217.22 100.07C207.081 102.224 197.088 105.013 187.3 108.42C185.3 109.13 184.12 108.67 183.06 107.01C178.59 100.01 174.06 92.94 169.06 86.26C165.63 81.66 162.75 76.7 159.19 72.17C156.67 68.96 155.19 64.89 153.4 61.17C151.4 57.17 149.54 53.06 147.71 48.96C147.569 48.7447 147.484 48.4984 147.46 48.2424C147.436 47.9864 147.475 47.7285 147.574 47.491C147.672 47.2536 147.827 47.0438 148.025 46.8798C148.223 46.7158 148.458 46.6026 148.71 46.55C153.59 44.55 158.47 42.64 163.25 40.45C169.01 37.82 174.65 34.92 180.38 32.2C186.722 29.0955 193.247 26.3805 199.92 24.07C203.92 22.75 207.62 20.82 211.5 19.31C217.79 16.87 224.31 15.16 230.47 12.11V12.15ZM157.98 77.76C161.36 82.2 164.73 86.51 167.98 90.92C171.98 96.39 175.14 102.4 178.82 108.08C179.58 109.24 180.66 110.16 180.96 111.69C181.44 114.06 182.82 114.59 184.96 113.46C186.393 112.558 187.894 111.769 189.45 111.1C194.82 109.29 200.26 107.67 205.9 105.9C206.09 108.59 206.72 111.1 206.69 113.76C206.6 120.95 207.41 128.13 206.77 135.33C206.58 137.51 205.91 138.97 203.41 138.98C202.06 138.98 200.71 139.26 199.41 139.37C194.41 139.79 189.41 139.95 184.41 140.67C179.84 141.32 175.24 141.67 170.66 142.25C164.52 143 158.34 143.78 152.05 143.36C149.24 143.17 146.29 143.77 143.39 143.82C142.29 143.82 141.07 144.07 140.39 143.13C141.05 138.8 144.39 128.34 145.67 127.67C146.087 127.51 146.425 127.194 146.612 126.789C146.799 126.383 146.819 125.921 146.67 125.5C146.42 124.29 145.48 124.19 144.52 124.02C143.73 123.89 143.01 124.27 142.16 124.02C133.5 121.23 124.8 118.54 116.16 115.82C118.89 96.64 139.23 81.7 157.98 77.72V77.76ZM89.2098 161.61L74.7398 156.72C75.2513 155.794 75.6925 154.832 76.0598 153.84C77.4698 149.65 77.2698 145.17 78.6398 140.99C79.2198 139.22 78.9198 137.71 76.9198 136.83C75.2312 136.11 73.6141 135.233 72.0898 134.21C70.6498 133.21 69.0898 132 69.5598 129.92C69.7473 128.836 70.2538 127.833 71.0144 127.039C71.775 126.244 72.7552 125.694 73.8298 125.46C75.7621 125.038 77.7691 125.103 79.6698 125.65C82.4798 126.33 84.5598 125.06 85.1298 122.34C85.6883 119.374 86.86 116.557 88.5698 114.07C96.4674 114.433 104.295 115.725 111.89 117.92V124.5C111.89 125.94 112.39 127.03 113.95 126.82C115.51 126.61 116.45 125.56 116.08 123.66C115.8 122.22 115.01 120.66 116.18 119.13C125.27 120.56 133.71 123.88 142.18 127.58C136.63 142.84 131.54 158.06 124.13 172.26C119.63 170.35 115.36 168.26 110.9 166.76C109 166.12 108.48 165.53 108.64 163.61C108.96 159.75 106.64 156.05 103.53 155.05C98.2898 153.35 91.6498 156.23 89.2098 161.57V161.61ZM207.8 105.61C222.55 101.84 237.6 99.61 251.8 93.91C252.04 94.85 252.11 95.1 252.16 95.36C253.45 101.73 253.16 108.17 253.03 114.6C252.91 120.6 252.48 126.51 252.8 132.47C252.91 134.35 252.23 135.47 250.13 135.36C245.77 135.16 241.57 136.55 237.19 136.52C232.81 136.49 228.48 137.3 224.12 137.28C219.43 137.28 214.77 137.62 210 137.79C208.41 127.12 210.57 116.34 207.8 105.58V105.61ZM219.96 415.61C215.01 414.68 200.96 413.55 196.01 412.47C191.83 411.78 139.6 407.35 97.8198 402.8C68.5598 399.62 45.8198 395.88 42.4898 395.43C30.9698 393.86 19.4398 392.43 7.85977 391.5C5.15977 391.27 3.85977 389.92 4.10977 387.18C4.10977 386.6 4.27978 386.01 4.36978 385.35C4.84188 385.216 5.32911 385.142 5.81979 385.13C13.1398 386.05 20.4598 387.01 27.8198 387.92C31.8198 388.42 87.7298 394.92 94.2998 395.77C104.79 397.07 115.15 399.14 125.7 400.17C138.35 401.39 179.53 405.11 187.44 405.95C191.44 406.37 195.38 406.6 199.32 407.12C205.83 407.98 212.06 410.18 218.51 411.35C220.48 411.71 219.76 413.49 219.96 415.6V415.61ZM312.75 337.85C312.98 340.22 313.14 342.41 313.15 344.65C313.206 345.062 313.168 345.481 313.038 345.876C312.908 346.272 312.69 346.632 312.4 346.93C309.22 349.83 305.76 352.45 302.4 355.11C296.87 359.5 291.82 364.43 286.2 368.71C280.58 372.99 275.43 378.19 270 382.88C265.91 386.4 261.51 389.51 257.1 392.63C250.96 396.97 245.03 401.63 238.4 405.23C235.91 406.57 226.4 413.76 223.93 414.23C223.68 412.93 222.3 410.45 223.08 409.68C224.53 408.22 237.08 400.46 240.62 397.54C247.54 391.83 277.1 367.2 282.57 362.78C285.85 360.13 289.18 357.47 292.47 354.86C297.85 350.6 302.77 345.73 308.2 341.49C309.68 340.29 310.82 338.71 312.75 337.84V337.85ZM256.57 41.85C257.426 42.0815 258.332 42.0501 259.17 41.76C259.83 41.64 260.63 41.24 261.24 42.04C263.635 44.9735 265.817 48.0748 267.77 51.32C270.49 56.32 280.66 69.61 281.11 71.78C281.45 73.38 277.35 83.36 277.35 83.36C277.35 83.36 268.35 66.6 263.72 60.36C261.726 57.9348 259.883 55.39 258.2 52.74C254.45 46.13 250.68 39.54 246.45 33.23C242.22 26.92 238.57 20.54 234.98 14C234.45 13 233.1 11.91 233.65 11C234.734 9.017 236.256 7.30707 238.1 5.99999C243.49 17.69 252.83 26.63 258.34 37.91C257.51 39.18 255.44 39.69 256.57 41.81V41.85ZM230.17 7.30999C227.206 9.77041 223.817 11.6683 220.17 12.91C215.6 14.67 210.94 16.19 206.5 18.28C203.88 19.5133 201.213 20.66 198.5 21.72C194.17 23.41 189.68 24.72 185.5 26.72C176.33 30.91 167.34 35.49 158.17 39.66C155.91 40.66 153.74 42.38 150.47 42.12C175.71 26.76 201.49 13.8 230.17 7.26999V7.30999Z" fill="black"/>
<path d="M177.2 229.42C177.2 225.29 177.31 221.32 177.14 217.36C177.176 217.038 177.13 216.712 177.006 216.413C176.881 216.114 176.682 215.852 176.427 215.652C176.173 215.451 175.871 215.319 175.551 215.268C175.232 215.217 174.904 215.249 174.6 215.36C173.127 215.768 171.581 215.836 170.079 215.557C168.576 215.278 167.157 214.66 165.93 213.75C165.588 213.55 165.305 213.264 165.11 212.92C163.99 210.56 166.11 206.34 168.68 205.71C170.68 205.22 172.54 204.33 174.68 205.36C175.79 205.89 177.08 203.63 176.68 202.12C175.76 198.947 175.421 195.634 175.68 192.34C175.88 189.48 175.63 188.11 171.95 188.34C165.64 188.68 159.34 188.68 153.03 188.76C148.411 188.932 143.805 189.346 139.23 190C135.232 190.31 131.281 191.065 127.45 192.25C126.407 192.582 125.291 192.617 124.23 192.35C121.32 191.72 120.59 192.43 120.88 195.35C121.61 202.66 121.88 209.99 122.23 217.35C122.38 220.52 122.82 223.69 122.35 226.87C122.28 227.276 122.318 227.693 122.46 228.08C124.98 234.03 123.21 240.27 123.69 246.36C124.22 253.26 124.94 260.15 124.97 267.08C124.97 271.887 124.953 276.703 124.92 281.53C124.92 283.64 127.18 285.78 129.18 285.15C132.51 284.15 135.9 284.35 139.26 284.35C148.93 284.35 158.6 285.35 168.26 284.81C178.26 284.21 188.26 283.74 198.19 282.58C206.78 281.58 227.44 280.42 229.38 280.7C230.51 280.86 230.14 278.81 230.12 277.7C230.06 274.25 229.68 270.8 229.8 267.36C230.06 259.76 229.56 252.2 229.07 244.63C228.83 240.82 228.38 237.02 228.81 233.18C229.14 230.27 226.81 228.25 223.91 227.99C219.91 227.64 215.97 228.34 211.99 228.4C208.19 228.45 208.1 228.47 207.42 224.68C206.56 219.84 200.85 217.07 197.33 217.68C191.85 218.6 188.48 221.68 187.21 227.68C187.07 228.34 186.96 229 186.82 229.78C183.58 229.76 180.43 230.26 177.2 229.42ZM128.5 281.1C128.79 276.05 128.15 271.3 128.5 266.49C128.94 260.38 127.65 254.31 127.14 248.23C126.83 242.705 126.799 237.168 127.05 231.64C129.478 231.259 131.951 231.259 134.38 231.64C136.06 231.79 136.58 232.64 136.83 234.07C138.09 241.17 142.23 245.52 149.88 245.8C152.88 245.91 158.09 242.54 158.72 239.3C159.15 237.08 159.86 234.91 160.45 232.71C164.1 232.46 167.64 232.58 171.17 232.58C174.7 232.58 176.38 233.58 176.36 237.08C176.36 237.76 176.43 238.43 176.47 239.08C176.73 244 177.57 248.88 177.13 253.84C176.94 256.02 178.43 257.06 180.59 256.67C182.046 256.318 183.561 256.286 185.031 256.578C186.5 256.87 187.889 257.478 189.1 258.36C190.85 259.7 190.73 261.1 188.8 262.04C186.564 263.067 184.043 263.293 181.66 262.68C178.15 261.91 176.76 263.33 177.72 266.81C178.104 268.186 178.283 269.612 178.25 271.04C178.18 274.29 177.83 277.54 178.62 280.64C161.96 282.51 145.41 280.84 128.5 281.1ZM226.5 277.75C218.94 278.69 211.5 277.87 204.05 278.91C198.34 279.71 192.5 279.55 186.76 280.51C182.76 281.18 181.25 279.44 181.28 275.27C181.28 273.27 181.67 271.19 181.35 269.27C180.86 266.44 182.5 266.17 184.43 266.13C186.034 266.191 187.64 266.03 189.2 265.65C191.2 265.02 193.03 263.96 193.66 261.95C194.24 260.12 193.28 258.52 191.86 257.13C189.412 254.671 186.118 253.24 182.65 253.13C180.57 253.06 180.35 252.01 180.26 250.47C179.966 245.41 179.67 240.347 179.37 235.28C179.3 234.11 179.46 233.39 180.96 233.34C183.301 233.175 185.653 233.457 187.89 234.17C189.89 234.88 191.66 233.62 191.16 231.77C189.99 227.45 192.11 224.72 195.3 222.43C197.71 220.7 200.07 220.55 202.06 221.91C202.999 222.682 203.716 223.69 204.138 224.83C204.56 225.971 204.671 227.203 204.46 228.4C203.92 230.96 205.55 232.71 208.07 232.24C209.34 232 210.57 231.57 211.84 231.4C216.323 230.668 220.907 230.824 225.33 231.86C226.08 247.27 226.95 262.54 226.54 277.75H226.5ZM174.09 219.42C174.29 221.97 174.84 224.25 174.71 226.67C174.58 229.09 173.32 229.46 171.46 229.47C167.69 229.47 163.91 229.47 160.13 229.53C157.3 229.53 156.71 230.15 156.72 233.03C156.741 233.7 156.694 234.37 156.58 235.03C155.4 241.24 150.68 244.12 145.58 241.77C142.85 240.53 139.72 235.06 140 232.01C140.15 230.39 139.6 228.31 138.25 228.36C135.32 228.47 132.5 227.58 129.61 227.82C126.72 228.06 125.76 227.04 125.7 224.2C125.756 220.996 125.556 217.792 125.1 214.62C124.1 209.09 124.79 203.5 124.17 197.97C124.124 197.732 124.129 197.488 124.183 197.252C124.237 197.016 124.34 196.794 124.485 196.6C124.63 196.406 124.814 196.245 125.025 196.126C125.235 196.007 125.469 195.934 125.71 195.91C129.45 196.13 132.78 194.31 136.39 194C143.63 193.38 150.76 191.72 158.09 191.83C162.81 191.9 167.53 191.83 172.33 191.83C173 195.2 173.52 198.23 173.03 201.49L171.49 201.17C168.65 200.6 164.78 201.93 163.74 203.86C162.356 206.444 161.725 209.365 161.92 212.29C162.09 215.58 163.19 216.77 166.38 217.86C168.906 218.631 171.502 219.153 174.13 219.42H174.09Z" fill="black"/>
<path d="M97.12 384.52C97.54 386.57 120.85 388.16 130.12 389.08C136.45 389.71 157.86 392.74 162.19 394.02C164.03 394.56 167.19 386.4 169.01 384.17C170.32 382.58 171.43 380.76 173.24 379.53C174.24 378.84 173.84 377.64 172.75 377.11C171.896 376.688 170.97 376.431 170.02 376.35C163.71 375.83 157.69 373.77 151.39 373C147.55 372.53 143.65 371.28 139.78 370.4C133.005 368.958 126.144 367.956 119.24 367.4C114.24 366.94 110.87 368.09 107.79 372.01C104.47 376.23 96.7 382.47 97.12 384.52ZM102.8 382.72C105.61 379.48 107.49 376.3 110.53 374.19C112.19 373.02 113.4 371.1 115.83 371.19C120.378 371.272 124.919 371.606 129.43 372.19C138.84 373.48 148.15 375.36 157.43 377.53C160.76 378.31 164.08 379.12 167.97 380.06C165.29 382.88 163.65 385.84 161.74 388.61C161.583 388.834 161.364 389.006 161.109 389.106C160.855 389.205 160.577 389.228 160.31 389.17C158.37 388.87 156.42 388.62 154.47 388.39C149.17 387.75 143.81 387.39 138.58 386.39C135.19 385.74 131.78 385.82 128.39 385.23C123.471 384.409 118.486 384.048 113.5 384.15C110.03 384.16 106.75 383.14 102.8 382.72Z" fill="black"/>
<path d="M228.53 50.3C227.67 50.81 227.17 52.62 227.74 54.09C228.99 57.37 228.42 57.23 225.85 59.4C221.41 63.14 215.77 64.79 211.35 68.57C209.41 70.23 206.63 71.06 204.23 72.25C202.82 72.94 201.47 72.42 200.88 70.7C200.4 69.32 199.66 68.24 197.88 68.82C196.88 71.23 199.42 76.82 201.56 77.22C203.7 77.62 230.85 61.71 231.72 59.52C231.82 59.27 232.08 59.09 232.18 58.85C233.13 56.7 229.39 49.8 228.53 50.3Z" fill="black"/>
<path d="M220.809 36.5699C219.669 36.1899 218.589 35.6899 217.809 37.0599C217.549 37.4172 217.425 37.8565 217.462 38.2972C217.499 38.738 217.693 39.1507 218.009 39.4599C218.449 39.9299 219.009 40.3599 219.589 39.9599C220.198 39.6697 220.668 39.1507 220.897 38.5159C221.125 37.8811 221.094 37.1818 220.809 36.5699Z" fill="black"/>
<path d="M187.889 51.6299C188.088 51.4584 188.245 51.244 188.348 51.0029C188.452 50.7618 188.499 50.5003 188.486 50.2383C188.474 49.9763 188.402 49.7205 188.276 49.4903C188.15 49.2602 187.973 49.0617 187.759 48.9099C187.608 48.7609 187.427 48.6466 187.227 48.575C187.027 48.5034 186.814 48.4761 186.603 48.4951C186.392 48.5142 186.187 48.5791 186.003 48.6852C185.82 48.7914 185.661 48.9363 185.539 49.1099C183.889 50.6699 186.089 53.5999 187.889 51.6299Z" fill="black"/>
</svg>
