<svg width="360" height="360" viewBox="0 0 360 360" fill="none" xmlns="http://www.w3.org/2000/svg">
<mask id="mask0_166_688" style="mask-type:luminance" maskUnits="userSpaceOnUse" x="44" y="0" width="272" height="360">
<path fill-rule="evenodd" clip-rule="evenodd" d="M44 0H316V360H44V0Z" fill="white"/>
</mask>
<g mask="url(#mask0_166_688)">
<path d="M126.248 253.979C116.239 255.506 110.646 265.554 110.116 266.612C99.813 285.709 118.005 312.445 122.068 318.497C126.719 325.372 148.797 357.808 174.76 354.928C200.9 351.99 205.493 312.445 232.339 311.505C242.701 311.152 243.172 316.911 259.716 319.907C288.859 325.255 313.292 312.21 313.056 311.505C312.88 310.917 296.1 319.379 273.728 315.735C255.359 312.739 254.594 305.041 236.52 300.34C207.612 292.819 197.662 309.272 180.353 299.635C167.342 292.349 170.992 282.066 148.738 263.909C138.081 255.213 131.9 253.215 126.248 254.096L126.248 253.979Z" fill="#A4A4FF"/>
<path d="M126.248 253.979C116.239 255.506 110.646 265.554 110.116 266.612C99.813 285.709 118.005 312.445 122.068 318.497C126.719 325.372 148.797 357.808 174.76 354.928C200.9 351.99 205.493 312.445 232.339 311.505C242.701 311.152 243.172 316.911 259.716 319.907C288.859 325.255 313.292 312.21 313.056 311.505C312.88 310.917 296.1 319.379 273.728 315.735C255.359 312.739 254.594 305.041 236.52 300.34C207.612 292.819 197.662 309.272 180.353 299.635C167.342 292.349 170.992 282.066 148.738 263.909C138.081 255.213 131.9 253.215 126.248 254.096L126.248 253.979Z" stroke="#A4A4FF" stroke-width="3" stroke-miterlimit="10"/>
<path d="M274.906 6.30552C313.998 21.5243 321.299 146.331 275.848 173.713C256.478 185.406 244.938 168.836 191.598 174.418C142.32 179.53 132.194 195.689 104.346 187.874C79.7367 180.94 56.0103 159.434 49.0631 131.699C39.7021 94.2104 63.1341 54.3124 92.1003 38.6823C126.189 20.2316 146.441 46.0273 203.02 32.0424C248.53 20.7605 257.302 -0.51064 274.964 6.36428L274.906 6.30552Z" fill="#FFD89F"/>
<path d="M274.906 6.30552C313.998 21.5243 321.299 146.331 275.848 173.713C256.478 185.406 244.938 168.836 191.598 174.418C142.32 179.53 132.194 195.689 104.346 187.874C79.7367 180.94 56.0103 159.434 49.0631 131.699C39.7021 94.2104 63.1341 54.3124 92.1003 38.6823C126.189 20.2316 146.441 46.0273 203.02 32.0424C248.53 20.7605 257.302 -0.51064 274.964 6.36428L274.906 6.30552Z" stroke="#FFD89F" stroke-width="3" stroke-miterlimit="10"/>
<path d="M144.734 315.501C137.257 314.502 134.313 315.324 133.607 316.852C130.84 322.728 156.803 348.7 177.468 344.352C193.247 341.061 194.836 322.434 211.498 320.554C222.978 319.32 227.335 327.605 237.638 328.31C248.412 329.074 264.485 321.553 286.563 281.655" stroke="black" stroke-width="3" stroke-miterlimit="10"/>
<path d="M143.792 315.265C159.688 320.201 172.699 319.614 180.53 318.615C187.124 317.733 211.733 314.502 215.56 301.398C216.384 298.636 216.561 294.406 214.265 292.055C210.968 288.647 203.962 290.645 195.366 293.289C165.929 302.397 164.869 305.041 156.097 305.394C154.743 305.394 134.196 305.981 126.012 293.113C123.422 289.059 121.184 282.184 124.069 278.423C126.954 274.662 133.725 275.485 141.025 276.484C152.741 278.07 155.331 281.126 164.398 283.124C178.763 286.356 191.009 282.889 196.249 281.42C206.14 278.658 214.088 276.425 220.034 269.198C227.099 260.736 228.336 249.043 229.867 235.176C230.985 225.363 231.103 223.482 231.103 223.482C232.339 210.438 231.633 212.788 235.224 202.681C243.879 178.296 265.486 155.556 271.726 125.588C284.384 65.3005 235.401 7.01065 179.058 7.30445C158.04 7.42197 88.4501 16.236 80.7375 98.9112C78.0293 127.704 90.9817 148.857 105.995 173.889C114.414 187.933 124.952 203.151 124.952 222.248C124.952 239.994 126.974 252.843 131.016 260.795C135.314 269.198 177.939 273.84 197.368 267.67C202.431 266.025 205.787 261.206 205.728 255.918C205.669 243.284 206.788 220.956 202.431 216.255C193.659 206.795 160.395 211.437 156.156 217.724C152.505 223.189 155.037 232.238 152.976 242.227C150.151 255.918 154.625 263.909 168.402 265.202C192.717 267.376 197.427 260.56 198.604 248.573C200.429 230.769 198.369 230.416 198.428 215.373C198.428 215.373 198.428 214.198 198.428 213.023C198.428 212.142 206.258 174.183 217.915 122.474" stroke="#1D1D1B" stroke-width="3" stroke-miterlimit="10"/>
<path d="M135.962 121.358C145.382 179.236 187.889 261.265 147.442 253.861C139.318 252.334 133.96 250.336 129.839 248.044C128.603 247.339 126.719 246.046 123.009 243.519C112.177 236.116 111.293 234.941 108.762 233.53C100.519 228.947 93.69 231.944 85.9775 231.415C77.6173 230.886 65.8424 226.185 51.8892 206.266" stroke="black" stroke-width="3" stroke-miterlimit="10"/>
<path d="M136.315 123.355C135.137 97.9123 131.664 91.1549 128.367 90.6261C124.952 90.0385 120.242 95.8557 119.595 101.438C118.476 111.662 131.134 119.947 136.315 123.355ZM136.315 123.355C161.042 139.514 195.366 135.754 218.033 122.474C223.508 119.301 237.814 110.898 236.401 102.319C235.695 97.9123 230.808 93.7403 227.217 94.3867C220.623 95.6207 218.621 113.072 217.974 122.709" stroke="black" stroke-width="3" stroke-miterlimit="10"/>
</g>
</svg>
