<svg width="88" height="15" viewBox="0 0 88 15" fill="none" xmlns="http://www.w3.org/2000/svg">
<path d="M23.1757 5.70369C18.4324 7.23799 14.3114 9.25925 11.0974 12.7881C9.87104 14.1411 8.52883 15.3036 6.39503 14.6187C4.39813 13.9749 3.60004 11.7998 5.13564 10.4902C9.48449 6.79398 13.8658 3.08053 19.5374 1.29898C24.1101 -0.143073 27.36 1.30881 29.2008 5.62796C30.5863 8.85894 31.3361 9.24034 34.7891 8.17845C38.0628 7.16398 41.2667 5.95087 44.5662 5.01993C48.9365 3.78914 53.0583 3.84543 56.8294 7.09207C57.8347 7.95248 60.0142 8.25879 61.3588 7.88118C65.9566 6.58067 70.4991 5.03268 74.9063 3.21871C77.0575 2.33705 78.449 3.12098 80.0866 4.07751C81.0932 4.66207 82.1945 5.2672 83.3235 5.46218C84.8838 5.73958 86.473 6.07914 86.296 7.81936C86.2133 8.62129 84.8633 9.57197 83.8822 9.92802C82.7586 10.3367 81.1947 10.6181 80.1755 10.177C75.5736 8.19375 71.7272 10.3989 67.8025 11.932C64.2362 13.3194 60.6795 13.9962 56.9228 12.9453C55.6372 12.583 54.2043 12.2 53.2528 11.3835C51.3308 9.72601 49.3721 9.29093 46.9953 10.0682C44.1623 10.9921 41.3304 11.9088 38.4523 12.6738C36.3859 13.2187 34.264 13.7849 32.1365 13.8564C28.3408 13.9912 25.5795 11.947 24.2472 8.49829C23.9058 7.61497 23.5727 6.72557 23.1831 5.70473L23.1757 5.70369Z" fill="#C50B0B"/>
</svg>
